<?xml version="1.0" encoding="utf-8" standalone="no"?>
<!DOCTYPE svg PUBLIC "-//W3C//DTD SVG 1.1//EN"
  "http://www.w3.org/Graphics/SVG/1.1/DTD/svg11.dtd">
<svg xmlns:xlink="http://www.w3.org/1999/xlink" width="575.408157pt" height="426.199187pt" viewBox="0 0 575.408157 426.199187" xmlns="http://www.w3.org/2000/svg" version="1.1">
 <metadata>
  <rdf:RDF xmlns:dc="http://purl.org/dc/elements/1.1/" xmlns:cc="http://creativecommons.org/ns#" xmlns:rdf="http://www.w3.org/1999/02/22-rdf-syntax-ns#">
   <cc:Work>
    <dc:type rdf:resource="http://purl.org/dc/dcmitype/StillImage"/>
    <dc:date>2026-05-28T13:48:50.863083</dc:date>
    <dc:format>image/svg+xml</dc:format>
    <dc:creator>
     <cc:Agent>
      <dc:title>Matplotlib v3.10.6, https://matplotlib.org/</dc:title>
     </cc:Agent>
    </dc:creator>
   </cc:Work>
  </rdf:RDF>
 </metadata>
 <defs>
  <style type="text/css">*{stroke-linejoin: round; stroke-linecap: butt}</style>
 </defs>
 <g id="figure_1">
  <g id="patch_1">
   <path d="M 0 426.199187 
L 575.408157 426.199187 
L 575.408157 0 
L 0 0 
z
" style="fill: #ffffff"/>
  </g>
  <g id="axes_1">
   <g id="patch_2">
    <path d="M 403.316297 230.503188 
C 403.316297 205.75012 398.440482 181.237744 388.967893 158.368891 
C 379.495304 135.500038 365.610159 114.71945 348.107096 97.216388 
C 330.604034 79.713325 309.823446 65.82818 286.954593 56.355591 
C 264.08574 46.883002 239.573364 42.007188 214.820297 42.007188 
C 190.067229 42.007188 165.554853 46.883002 142.686 56.355591 
C 119.817147 65.82818 99.036559 79.713325 81.533497 97.216388 
C 64.030435 114.71945 50.145289 135.500038 40.6727 158.368891 
C 31.200111 181.237744 26.324297 205.75012 26.324297 230.503187 
C 26.324297 255.256255 31.200111 279.768631 40.6727 302.637484 
C 50.145289 325.506337 64.030435 346.286925 81.533497 363.789987 
C 99.036559 381.29305 119.817147 395.178195 142.686 404.650784 
C 165.554853 414.123373 190.067229 418.999188 214.820297 418.999188 
C 239.573364 418.999188 264.08574 414.123373 286.954593 404.650784 
C 309.823446 395.178195 330.604034 381.29305 348.107096 363.789987 
C 365.610159 346.286925 379.495304 325.506337 388.967893 302.637484 
C 398.440482 279.768631 403.316297 255.256255 403.316297 230.503188 
M 214.820297 230.503188 
C 214.820297 230.503188 214.820297 230.503188 214.820297 230.503188 
C 214.820297 230.503188 214.820297 230.503188 214.820297 230.503188 
C 214.820297 230.503188 214.820297 230.503188 214.820297 230.503188 
C 214.820297 230.503188 214.820297 230.503188 214.820297 230.503188 
C 214.820297 230.503188 214.820297 230.503188 214.820297 230.503188 
C 214.820297 230.503188 214.820297 230.503188 214.820297 230.503188 
C 214.820297 230.503188 214.820297 230.503188 214.820297 230.503188 
C 214.820297 230.503188 214.820297 230.503188 214.820297 230.503188 
C 214.820297 230.503188 214.820297 230.503188 214.820297 230.503188 
C 214.820297 230.503188 214.820297 230.503188 214.820297 230.503188 
C 214.820297 230.503188 214.820297 230.503188 214.820297 230.503188 
C 214.820297 230.503188 214.820297 230.503188 214.820297 230.503188 
C 214.820297 230.503188 214.820297 230.503188 214.820297 230.503188 
C 214.820297 230.503188 214.820297 230.503188 214.820297 230.503188 
C 214.820297 230.503188 214.820297 230.503188 214.820297 230.503188 
C 214.820297 230.503188 214.820297 230.503188 214.820297 230.503188 
z
" style="fill: #fbfdff"/>
   </g>
   <g id="patch_3">
    <path d="M 214.820297 218.662194 
L 226.973981 226.554216 
L 214.820297 230.503188 
L 173.869998 286.866439 
L 214.820297 230.503188 
z
" clip-path="url(#p317e7d4797)" style="fill: #7c3aed; opacity: 0.06; stroke: #7c3aed; stroke-linejoin: miter"/>
   </g>
   <g id="patch_4">
    <path d="M 214.820297 90.688841 
L 370.869644 179.799681 
L 273.669561 311.502251 
L 124.453502 354.882409 
L 46.447602 175.795583 
z
" clip-path="url(#p317e7d4797)" style="fill: #0ea5e9; opacity: 0.06; stroke: #0ea5e9; stroke-linejoin: miter"/>
   </g>
   <g id="patch_5">
    <path d="M 214.820297 93.004575 
L 368.533993 180.55858 
L 270.889643 307.676022 
L 124.157747 355.289481 
L 47.229042 176.049488 
z
" clip-path="url(#p317e7d4797)" style="fill: #65a30d; opacity: 0.06; stroke: #65a30d; stroke-linejoin: miter"/>
   </g>
   <g id="patch_6">
    <path d="M 214.820297 196.740552 
L 305.343176 201.090521 
L 325.615465 382.999655 
L 175.743098 284.288338 
L 94.5877 191.437249 
z
" clip-path="url(#p317e7d4797)" style="fill: #dc2626; opacity: 0.06; stroke: #dc2626; stroke-linejoin: miter"/>
   </g>
   <g id="patch_7">
    <path d="M 214.820297 163.699461 
L 301.368149 202.382086 
L 256.494895 287.863352 
L 151.329159 317.891242 
L 91.882668 190.558331 
z
" clip-path="url(#p317e7d4797)" style="fill: #2563eb; opacity: 0.06; stroke: #2563eb; stroke-linejoin: miter"/>
   </g>
   <g id="patch_8">
    <path d="M 214.820297 42.007188 
L 384.226822 175.459671 
L 277.622579 316.943114 
L 104.025128 382.999655 
L 52.358053 177.716005 
z
" clip-path="url(#p317e7d4797)" style="fill: #ea580c; opacity: 0.06; stroke: #ea580c; stroke-linejoin: miter"/>
   </g>
   <g id="patch_9">
    <path d="M 214.820297 230.503188 
L 214.820297 230.503188 
L 248.997669 277.544305 
L 214.820297 230.503188 
L 115.346422 198.182166 
z
" clip-path="url(#p317e7d4797)" style="fill: #0f766e; opacity: 0.06; stroke: #0f766e; stroke-linejoin: miter"/>
   </g>
   <g id="patch_10">
    <path d="M 214.820297 54.195795 
L 394.090646 172.25472 
L 269.808313 306.187699 
L 107.491034 378.229244 
L 35.549947 172.25472 
z
" clip-path="url(#p317e7d4797)" style="fill: #db2777; opacity: 0.06; stroke: #db2777; stroke-linejoin: miter"/>
   </g>
   <g id="patch_11">
    <path d="M 214.820297 81.031704 
L 372.268767 179.345078 
L 273.503625 311.27386 
L 116.449737 365.898647 
L 47.684472 176.197466 
z
" clip-path="url(#p317e7d4797)" style="fill: #be123c; opacity: 0.06; stroke: #be123c; stroke-linejoin: miter"/>
   </g>
   <g id="matplotlib.axis_1">
    <g id="xtick_1">
     <g id="line2d_1">
      <path d="M 214.820297 230.503188 
L 214.820297 42.007188 
" clip-path="url(#p317e7d4797)" style="fill: none; stroke: #e2e8f0; stroke-width: 0.8; stroke-linecap: square"/>
     </g>
     <g id="text_1">
      <!-- SMAPE -->
      <g transform="translate(196.474984 30.816563) scale(0.1 -0.1)">
       <defs>
        <path id="HiraginoSansGB-W3-53" d="M 3840 3718 
C 3770 4045 3706 4205 3558 4397 
C 3270 4781 2778 4986 2144 4986 
C 1152 4986 506 4467 506 3661 
C 506 3213 704 2874 1101 2650 
C 1318 2528 1568 2438 1971 2355 
C 2746 2182 2816 2163 3027 2042 
C 3270 1907 3398 1670 3398 1357 
C 3398 762 2938 403 2176 403 
C 1702 403 1318 563 1107 845 
C 973 1018 928 1171 909 1478 
L 352 1408 
C 416 986 486 787 653 563 
C 947 166 1478 -45 2195 -45 
C 3296 -45 3917 467 3917 1370 
C 3917 2112 3507 2502 2483 2720 
C 1747 2880 1741 2880 1568 2950 
C 1190 3104 1011 3341 1011 3674 
C 1011 4192 1472 4544 2131 4544 
C 2547 4544 2874 4416 3078 4173 
C 3200 4026 3251 3898 3302 3642 
L 3840 3718 
z
" transform="scale(0.015625)"/>
        <path id="HiraginoSansGB-W3-4d" d="M 2554 710 
C 2682 422 2758 205 2790 38 
L 3245 38 
C 3296 250 3360 416 3488 704 
L 4794 3578 
C 4915 3840 5005 4096 5069 4358 
C 5043 4096 5024 3750 5024 3571 
L 5024 794 
C 5024 486 5011 256 4973 38 
L 5555 38 
C 5517 269 5504 442 5504 794 
L 5504 4141 
C 5504 4474 5517 4659 5555 4902 
L 4819 4902 
C 4781 4717 4710 4518 4602 4269 
L 3027 742 
L 1446 4269 
C 1350 4480 1274 4710 1235 4902 
L 493 4902 
C 531 4666 544 4461 544 4141 
L 544 794 
C 544 461 531 275 493 38 
L 1075 38 
C 1037 256 1024 454 1024 794 
L 1024 3533 
C 1024 3686 998 4083 979 4358 
C 1101 3968 1171 3770 1267 3565 
L 2554 710 
z
" transform="scale(0.015625)"/>
        <path id="HiraginoSansGB-W3-41" d="M 4710 38 
C 4614 205 4531 390 4371 774 
L 2938 4307 
C 2778 4698 2746 4781 2720 4902 
L 2074 4902 
C 2042 4755 1990 4608 1869 4307 
L 435 774 
C 262 346 218 250 90 38 
L 755 38 
C 800 262 858 448 954 691 
L 1286 1517 
L 3520 1517 
L 3853 691 
C 3930 493 4000 269 4051 38 
L 4710 38 
z
M 3366 1958 
L 1440 1958 
L 2259 4070 
C 2272 4096 2291 4166 2330 4269 
C 2342 4314 2368 4384 2400 4480 
C 2522 4128 2522 4122 2541 4070 
L 3366 1958 
z
" transform="scale(0.015625)"/>
        <path id="HiraginoSansGB-W3-50" d="M 1094 38 
C 1056 256 1043 454 1043 762 
L 1043 2022 
L 2470 2022 
C 3469 2022 4045 2566 4045 3507 
C 4045 4397 3488 4902 2502 4902 
L 1197 4902 
C 902 4902 723 4909 493 4922 
C 531 4653 544 4454 544 4192 
L 544 755 
C 544 454 531 269 493 38 
L 1094 38 
z
M 1043 2464 
L 1043 4461 
L 2470 4461 
C 3162 4461 3533 4122 3533 3482 
C 3533 2829 3149 2464 2470 2464 
L 1043 2464 
z
" transform="scale(0.015625)"/>
        <path id="HiraginoSansGB-W3-45" d="M 3789 531 
C 3552 499 3373 486 3078 486 
L 1050 486 
L 1050 2368 
L 2733 2368 
C 3066 2368 3232 2355 3450 2323 
L 3450 2861 
C 3206 2829 3014 2816 2733 2816 
L 1050 2816 
L 1050 4454 
L 3021 4454 
C 3341 4454 3514 4442 3738 4410 
L 3738 4947 
C 3520 4915 3302 4902 3021 4902 
L 1197 4902 
C 890 4902 717 4909 493 4922 
C 531 4640 544 4467 544 4192 
L 544 781 
C 544 454 531 262 493 19 
C 710 32 890 38 1197 38 
L 3072 38 
C 3411 38 3584 26 3789 -6 
L 3789 531 
z
" transform="scale(0.015625)"/>
       </defs>
       <use xlink:href="#HiraginoSansGB-W3-53"/>
       <use xlink:href="#HiraginoSansGB-W3-4d" transform="translate(66.899994 0)"/>
       <use xlink:href="#HiraginoSansGB-W3-41" transform="translate(161.399979 0)"/>
       <use xlink:href="#HiraginoSansGB-W3-50" transform="translate(236.399963 0)"/>
       <use xlink:href="#HiraginoSansGB-W3-45" transform="translate(302.59996 0)"/>
      </g>
     </g>
    </g>
    <g id="xtick_2">
     <g id="line2d_2">
      <path d="M 214.820297 230.503188 
L 394.090646 172.25472 
" clip-path="url(#p317e7d4797)" style="fill: none; stroke: #e2e8f0; stroke-width: 0.8; stroke-linecap: square"/>
     </g>
     <g id="text_2">
      <!-- MAE -->
      <g transform="translate(395.715593 170.737857) scale(0.1 -0.1)">
       <use xlink:href="#HiraginoSansGB-W3-4d"/>
       <use xlink:href="#HiraginoSansGB-W3-41" transform="translate(94.499985 0)"/>
       <use xlink:href="#HiraginoSansGB-W3-45" transform="translate(169.499969 0)"/>
      </g>
     </g>
    </g>
    <g id="xtick_3">
     <g id="line2d_3">
      <path d="M 214.820297 230.503188 
L 325.615465 382.999655 
" clip-path="url(#p317e7d4797)" style="fill: none; stroke: #e2e8f0; stroke-width: 0.8; stroke-linecap: square"/>
     </g>
     <g id="text_3">
      <!-- RMSE -->
      <g transform="translate(318.929615 397.135268) scale(0.1 -0.1)">
       <defs>
        <path id="HiraginoSansGB-W3-52" d="M 4410 38 
C 4320 192 4230 384 4122 634 
C 3923 1075 3770 1408 3616 1709 
C 3386 2163 3226 2336 2963 2413 
C 3309 2490 3469 2566 3654 2733 
C 3917 2957 4038 3264 4038 3674 
C 4038 4467 3526 4902 2598 4902 
L 1190 4902 
C 896 4902 717 4909 493 4922 
C 531 4666 544 4461 544 4186 
L 544 755 
C 544 442 531 269 493 38 
L 1088 38 
C 1050 269 1037 435 1037 762 
L 1037 2259 
L 2221 2259 
C 2733 2259 2982 2010 3354 1133 
C 3622 493 3712 230 3731 38 
L 4410 38 
z
M 1037 2701 
L 1037 4461 
L 2592 4461 
C 3200 4461 3520 4166 3520 3622 
C 3520 3347 3443 3136 3277 2976 
C 3104 2803 2842 2701 2554 2701 
L 1037 2701 
z
" transform="scale(0.015625)"/>
       </defs>
       <use xlink:href="#HiraginoSansGB-W3-52"/>
       <use xlink:href="#HiraginoSansGB-W3-4d" transform="translate(72.599991 0)"/>
       <use xlink:href="#HiraginoSansGB-W3-53" transform="translate(167.099976 0)"/>
       <use xlink:href="#HiraginoSansGB-W3-45" transform="translate(233.999969 0)"/>
      </g>
     </g>
    </g>
    <g id="xtick_4">
     <g id="line2d_4">
      <path d="M 214.820297 230.503188 
L 104.025128 382.999655 
" clip-path="url(#p317e7d4797)" style="fill: none; stroke: #e2e8f0; stroke-width: 0.8; stroke-linecap: square"/>
     </g>
     <g id="text_4">
      <!-- WAPE -->
      <g transform="translate(80.491447 397.135268) scale(0.1 -0.1)">
       <defs>
        <path id="HiraginoSansGB-W3-57" d="M 4922 38 
C 4947 179 4947 186 5088 672 
L 6106 4173 
C 6208 4531 6259 4685 6355 4902 
L 5715 4902 
C 5702 4717 5658 4486 5594 4237 
L 4838 1472 
L 4666 736 
C 4538 1235 4512 1331 4474 1472 
L 3616 4275 
C 3539 4518 3494 4710 3462 4902 
L 2982 4902 
C 2963 4755 2906 4506 2835 4275 
L 1978 1466 
C 1926 1293 1850 992 1786 736 
C 1696 1126 1658 1306 1613 1459 
L 858 4237 
C 787 4499 749 4710 736 4902 
L 90 4902 
C 192 4691 250 4525 352 4173 
L 1363 672 
C 1517 154 1517 154 1536 38 
L 2029 38 
C 2061 198 2086 307 2195 653 
L 3034 3418 
C 3072 3546 3155 3878 3200 4045 
C 3200 4070 3213 4109 3226 4154 
C 3270 3910 3328 3693 3411 3418 
L 4256 653 
C 4339 397 4397 166 4422 38 
L 4922 38 
z
" transform="scale(0.015625)"/>
       </defs>
       <use xlink:href="#HiraginoSansGB-W3-57"/>
       <use xlink:href="#HiraginoSansGB-W3-41" transform="translate(100.599991 0)"/>
       <use xlink:href="#HiraginoSansGB-W3-50" transform="translate(175.599976 0)"/>
       <use xlink:href="#HiraginoSansGB-W3-45" transform="translate(241.799973 0)"/>
      </g>
     </g>
    </g>
    <g id="xtick_5">
     <g id="line2d_5">
      <path d="M 214.820297 230.503188 
L 35.549947 172.25472 
" clip-path="url(#p317e7d4797)" style="fill: none; stroke: #e2e8f0; stroke-width: 0.8; stroke-linecap: square"/>
     </g>
     <g id="text_5">
      <!-- MASE -->
      <g transform="translate(7.2 170.737857) scale(0.1 -0.1)">
       <use xlink:href="#HiraginoSansGB-W3-4d"/>
       <use xlink:href="#HiraginoSansGB-W3-41" transform="translate(94.499985 0)"/>
       <use xlink:href="#HiraginoSansGB-W3-53" transform="translate(169.499969 0)"/>
       <use xlink:href="#HiraginoSansGB-W3-45" transform="translate(236.399963 0)"/>
      </g>
     </g>
    </g>
   </g>
   <g id="matplotlib.axis_2">
    <g id="ytick_1">
     <g id="line2d_6">
      <path d="M 214.820297 192.803988 
C 219.77091 192.803988 224.673385 193.77915 229.247156 195.673668 
C 233.820926 197.568186 237.977044 200.345215 241.477657 203.845828 
C 244.978269 207.34644 247.755298 211.502558 249.649816 216.076328 
C 251.544334 220.650099 252.519497 225.552574 252.519497 230.503188 
C 252.519497 235.453801 251.544334 240.356276 249.649816 244.930047 
C 247.755298 249.503817 244.978269 253.659935 241.477657 257.160547 
C 237.977044 260.66116 233.820926 263.438189 229.247156 265.332707 
C 224.673385 267.227225 219.77091 268.202388 214.820297 268.202388 
C 209.869683 268.202388 204.967208 267.227225 200.393437 265.332707 
C 195.819667 263.438189 191.663549 260.66116 188.162937 257.160547 
C 184.662324 253.659935 181.885295 249.503817 179.990777 244.930047 
C 178.09626 240.356276 177.121097 235.453801 177.121097 230.503188 
C 177.121097 225.552574 178.09626 220.650099 179.990777 216.076328 
C 181.885295 211.502558 184.662324 207.34644 188.162937 203.845828 
C 191.663549 200.345215 195.819667 197.568186 200.393437 195.673668 
C 204.967208 193.77915 209.869683 192.803988 214.820297 192.803988 
" clip-path="url(#p317e7d4797)" style="fill: none; stroke: #e2e8f0; stroke-width: 0.8; stroke-linecap: square"/>
     </g>
     <g id="text_6">
      <!-- 0.2 -->
      <g transform="translate(229.247156 193.633043) scale(0.1 -0.1)">
       <defs>
        <path id="HiraginoSansGB-W3-30" d="M 2099 -58 
C 2688 -58 3136 166 3456 614 
C 3738 1005 3904 1690 3904 2464 
C 3904 2995 3821 3507 3661 3949 
C 3584 4160 3456 4358 3277 4538 
C 2989 4838 2579 4992 2106 4992 
C 1472 4992 979 4723 672 4205 
C 448 3834 301 3142 301 2464 
C 301 1939 384 1434 544 986 
C 621 768 755 570 928 397 
C 1229 96 1626 -58 2099 -58 
z
M 2099 4550 
C 2547 4550 2893 4352 3104 3968 
C 3270 3667 3392 3034 3392 2477 
C 3392 2003 3328 1581 3194 1184 
C 3136 998 3034 832 2893 685 
C 2701 486 2426 384 2106 384 
C 1670 384 1338 570 1114 941 
C 941 1242 813 1869 813 2464 
C 813 2931 877 3366 1011 3757 
C 1062 3917 1165 4077 1299 4224 
C 1504 4442 1766 4550 2099 4550 
z
" transform="scale(0.015625)"/>
        <path id="HiraginoSansGB-W3-2e" d="M 448 672 
L 448 38 
L 1082 38 
L 1082 672 
L 448 672 
z
" transform="scale(0.015625)"/>
        <path id="HiraginoSansGB-W3-32" d="M 3027 38 
C 3347 38 3558 26 3814 0 
L 3814 538 
C 3571 506 3354 493 3034 493 
L 992 493 
C 1069 800 1158 973 1357 1235 
C 1568 1504 1773 1683 2278 2022 
C 3008 2509 3174 2630 3366 2848 
C 3616 3123 3744 3430 3744 3757 
C 3744 4512 3123 4998 2157 4998 
C 1594 4998 1158 4832 870 4506 
C 659 4269 563 4045 467 3584 
L 1005 3494 
C 1050 3814 1107 3968 1229 4141 
C 1421 4416 1734 4557 2157 4557 
C 2810 4557 3219 4243 3219 3757 
C 3219 3366 3008 3085 2374 2656 
C 1632 2150 1619 2144 1395 1952 
C 992 1606 723 1254 563 851 
C 467 608 448 512 378 6 
C 582 32 678 38 1082 38 
L 3027 38 
z
" transform="scale(0.015625)"/>
       </defs>
       <use xlink:href="#HiraginoSansGB-W3-30"/>
       <use xlink:href="#HiraginoSansGB-W3-2e" transform="translate(65.699997 0)"/>
       <use xlink:href="#HiraginoSansGB-W3-32" transform="translate(89.699982 0)"/>
      </g>
     </g>
    </g>
    <g id="ytick_2">
     <g id="line2d_7">
      <path d="M 214.820297 155.104788 
C 224.721524 155.104788 234.526474 157.055113 243.674015 160.844149 
C 252.821556 164.633185 261.133792 170.187243 268.135017 177.188468 
C 275.136241 184.189692 280.6903 192.501928 284.479335 201.649469 
C 288.268371 210.79701 290.218697 220.60196 290.218697 230.503188 
C 290.218697 240.404415 288.268371 250.209365 284.479335 259.356906 
C 280.6903 268.504447 275.136241 276.816683 268.135017 283.817907 
C 261.133792 290.819132 252.821556 296.37319 243.674015 300.162226 
C 234.526474 303.951262 224.721524 305.901588 214.820297 305.901588 
C 204.919069 305.901588 195.114119 303.951262 185.966578 300.162226 
C 176.819037 296.37319 168.506802 290.819132 161.505577 283.817907 
C 154.504352 276.816683 148.950294 268.504447 145.161258 259.356906 
C 141.372222 250.209365 139.421897 240.404415 139.421897 230.503188 
C 139.421897 220.60196 141.372222 210.79701 145.161258 201.649469 
C 148.950294 192.501928 154.504352 184.189692 161.505577 177.188468 
C 168.506802 170.187243 176.819037 164.633185 185.966578 160.844149 
C 195.114119 157.055113 204.919069 155.104788 214.820297 155.104788 
" clip-path="url(#p317e7d4797)" style="fill: none; stroke: #e2e8f0; stroke-width: 0.8; stroke-linecap: square"/>
     </g>
     <g id="text_7">
      <!-- 0.4 -->
      <g transform="translate(243.674015 158.803524) scale(0.1 -0.1)">
       <defs>
        <path id="HiraginoSansGB-W3-34" d="M 198 1254 
C 410 1274 602 1280 960 1280 
L 2675 1280 
L 2675 730 
C 2675 442 2662 262 2624 38 
L 3206 38 
C 3168 275 3155 422 3155 730 
L 3155 1280 
L 3392 1280 
C 3667 1280 3827 1267 4064 1235 
L 4064 1766 
C 3834 1734 3667 1722 3398 1722 
L 3155 1722 
L 3155 3821 
C 3155 4326 3162 4525 3194 4902 
L 2714 4902 
C 2566 4678 2451 4518 2234 4250 
L 614 2227 
C 480 2067 333 1888 198 1734 
L 198 1254 
z
M 2682 1715 
L 768 1715 
L 2240 3571 
C 2426 3808 2586 4019 2720 4211 
C 2688 3885 2682 3680 2682 3341 
L 2682 1715 
z
" transform="scale(0.015625)"/>
       </defs>
       <use xlink:href="#HiraginoSansGB-W3-30"/>
       <use xlink:href="#HiraginoSansGB-W3-2e" transform="translate(65.699997 0)"/>
       <use xlink:href="#HiraginoSansGB-W3-34" transform="translate(89.699982 0)"/>
      </g>
     </g>
    </g>
    <g id="ytick_3">
     <g id="line2d_8">
      <path d="M 214.820297 117.405588 
C 229.672137 117.405588 244.379563 120.331076 258.100874 126.01463 
C 271.822186 131.698183 284.290539 140.02927 294.792376 150.531108 
C 305.294214 161.032945 313.625301 173.501298 319.308854 187.22261 
C 324.992408 200.943921 327.917897 215.651347 327.917897 230.503188 
C 327.917897 245.355028 324.992408 260.062454 319.308854 273.783765 
C 313.625301 287.505077 305.294214 299.97343 294.792376 310.475267 
C 284.290539 320.977105 271.822186 329.308192 258.100874 334.991745 
C 244.379563 340.675299 229.672137 343.600788 214.820297 343.600788 
C 199.968456 343.600788 185.261031 340.675299 171.539719 334.991745 
C 157.818407 329.308192 145.350054 320.977105 134.848217 310.475267 
C 124.346379 299.97343 116.015292 287.505077 110.331739 273.783765 
C 104.648185 260.062454 101.722697 245.355028 101.722697 230.503188 
C 101.722697 215.651347 104.648185 200.943921 110.331739 187.22261 
C 116.015292 173.501298 124.346379 161.032945 134.848217 150.531108 
C 145.350054 140.02927 157.818407 131.698183 171.539719 126.01463 
C 185.261031 120.331076 199.968456 117.405588 214.820297 117.405588 
" clip-path="url(#p317e7d4797)" style="fill: none; stroke: #e2e8f0; stroke-width: 0.8; stroke-linecap: square"/>
     </g>
     <g id="text_8">
      <!-- 0.6 -->
      <g transform="translate(258.100874 123.974005) scale(0.1 -0.1)">
       <defs>
        <path id="HiraginoSansGB-W3-36" d="M 3725 4006 
C 3539 4390 3411 4563 3187 4723 
C 2944 4896 2598 4992 2214 4992 
C 1658 4992 1203 4755 864 4294 
C 557 3878 378 3162 378 2362 
C 378 1453 608 736 1024 352 
C 1299 96 1728 -51 2182 -51 
C 3194 -51 3859 602 3859 1594 
C 3859 2579 3245 3194 2253 3194 
C 1811 3194 1472 3072 1171 2803 
C 1030 2682 966 2592 851 2394 
C 896 3091 954 3386 1120 3770 
C 1350 4294 1728 4563 2227 4563 
C 2547 4563 2797 4454 2989 4243 
C 3085 4134 3130 4045 3213 3840 
L 3725 4006 
z
M 3354 1581 
C 3354 1331 3290 1069 3187 902 
C 2989 582 2605 384 2189 384 
C 1498 384 979 896 979 1587 
C 979 1907 1088 2189 1299 2400 
C 1523 2624 1862 2765 2182 2765 
C 2931 2765 3354 2336 3354 1581 
z
" transform="scale(0.015625)"/>
       </defs>
       <use xlink:href="#HiraginoSansGB-W3-30"/>
       <use xlink:href="#HiraginoSansGB-W3-2e" transform="translate(65.699997 0)"/>
       <use xlink:href="#HiraginoSansGB-W3-36" transform="translate(89.699982 0)"/>
      </g>
     </g>
    </g>
    <g id="ytick_4">
     <g id="line2d_9">
      <path d="M 214.820297 79.706388 
C 234.622751 79.706388 254.232651 83.607039 272.527734 91.18511 
C 290.822816 98.763182 307.447287 109.871298 321.449736 123.873748 
C 335.452186 137.876197 346.560302 154.500668 354.138374 172.79575 
C 361.716445 191.090833 365.617097 210.700733 365.617097 230.503188 
C 365.617097 250.305642 361.716445 269.915542 354.138374 288.210625 
C 346.560302 306.505707 335.452186 323.130178 321.449736 337.132627 
C 307.447287 351.135077 290.822816 362.243193 272.527734 369.821265 
C 254.232651 377.399336 234.622751 381.299988 214.820297 381.299988 
C 195.017842 381.299988 175.407942 377.399336 157.11286 369.821265 
C 138.817777 362.243193 122.193306 351.135077 108.190857 337.132627 
C 94.188407 323.130178 83.080291 306.505707 75.502219 288.210625 
C 67.924148 269.915542 64.023497 250.305642 64.023497 230.503188 
C 64.023497 210.700733 67.924148 191.090833 75.502219 172.79575 
C 83.080291 154.500668 94.188407 137.876197 108.190857 123.873748 
C 122.193306 109.871298 138.817777 98.763182 157.11286 91.18511 
C 175.407942 83.607039 195.017842 79.706388 214.820297 79.706388 
" clip-path="url(#p317e7d4797)" style="fill: none; stroke: #e2e8f0; stroke-width: 0.8; stroke-linecap: square"/>
     </g>
     <g id="text_9">
      <!-- 0.8 -->
      <g transform="translate(272.527734 89.144485) scale(0.1 -0.1)">
       <defs>
        <path id="HiraginoSansGB-W3-38" d="M 2752 2586 
C 3322 2694 3680 3142 3680 3738 
C 3680 4525 3078 5005 2099 5005 
C 1133 5005 525 4512 525 3738 
C 525 3142 890 2688 1453 2586 
C 1216 2547 1075 2496 877 2368 
C 493 2118 307 1766 307 1306 
C 307 422 954 -64 2125 -64 
C 3251 -64 3891 429 3891 1306 
C 3891 1734 3731 2074 3411 2310 
C 3200 2470 3021 2547 2752 2586 
z
M 2099 4576 
C 2758 4576 3181 4237 3181 3699 
C 3181 3130 2778 2784 2106 2784 
C 1434 2784 1024 3130 1024 3699 
C 1024 4230 1446 4576 2099 4576 
z
M 2099 2342 
C 2886 2342 3366 1965 3366 1338 
C 3366 1075 3283 851 3123 704 
C 2906 486 2541 371 2093 371 
C 1299 371 832 730 832 1338 
C 832 1958 1312 2342 2099 2342 
z
" transform="scale(0.015625)"/>
       </defs>
       <use xlink:href="#HiraginoSansGB-W3-30"/>
       <use xlink:href="#HiraginoSansGB-W3-2e" transform="translate(65.699997 0)"/>
       <use xlink:href="#HiraginoSansGB-W3-38" transform="translate(89.699982 0)"/>
      </g>
     </g>
    </g>
    <g id="ytick_5">
     <g id="line2d_10">
      <path d="M 214.820297 42.007188 
C 239.573364 42.007188 264.08574 46.883002 286.954593 56.355591 
C 309.823446 65.82818 330.604034 79.713325 348.107096 97.216388 
C 365.610159 114.71945 379.495304 135.500038 388.967893 158.368891 
C 398.440482 181.237744 403.316297 205.75012 403.316297 230.503188 
C 403.316297 255.256255 398.440482 279.768631 388.967893 302.637484 
C 379.495304 325.506337 365.610159 346.286925 348.107096 363.789987 
C 330.604034 381.29305 309.823446 395.178195 286.954593 404.650784 
C 264.08574 414.123373 239.573364 418.999188 214.820297 418.999188 
C 190.067229 418.999188 165.554853 414.123373 142.686 404.650784 
C 119.817147 395.178195 99.036559 381.29305 81.533497 363.789987 
C 64.030435 346.286925 50.145289 325.506337 40.6727 302.637484 
C 31.200111 279.768631 26.324297 255.256255 26.324297 230.503188 
C 26.324297 205.75012 31.200111 181.237744 40.6727 158.368891 
C 50.145289 135.500038 64.030435 114.71945 81.533497 97.216388 
C 99.036559 79.713325 119.817147 65.82818 142.686 56.355591 
C 165.554853 46.883002 190.067229 42.007188 214.820297 42.007188 
" clip-path="url(#p317e7d4797)" style="fill: none; stroke: #e2e8f0; stroke-width: 0.8; stroke-linecap: square"/>
     </g>
     <g id="text_10">
      <!-- 1.0 -->
      <g transform="translate(286.954593 54.314966) scale(0.1 -0.1)">
       <defs>
        <path id="HiraginoSansGB-W3-31" d="M 1030 4429 
C 1216 4454 1382 4467 1587 4467 
L 1933 4467 
L 1933 762 
C 1933 467 1920 262 1882 38 
L 2490 38 
C 2451 275 2438 461 2438 762 
L 2438 3872 
C 2438 4218 2458 4544 2496 4934 
C 2285 4909 2182 4902 1965 4902 
L 1562 4902 
C 1318 4902 1197 4909 1030 4934 
L 1030 4429 
z
" transform="scale(0.015625)"/>
       </defs>
       <use xlink:href="#HiraginoSansGB-W3-31"/>
       <use xlink:href="#HiraginoSansGB-W3-2e" transform="translate(65.699997 0)"/>
       <use xlink:href="#HiraginoSansGB-W3-30" transform="translate(89.699982 0)"/>
      </g>
     </g>
    </g>
   </g>
   <g id="line2d_11">
    <path d="M 214.820297 218.662194 
L 226.973981 226.554216 
L 214.820297 230.503188 
L 173.869998 286.866439 
L 214.820297 230.503188 
L 214.820297 218.662194 
" clip-path="url(#p317e7d4797)" style="fill: none; stroke: #7c3aed; stroke-width: 1.8; stroke-linecap: square"/>
   </g>
   <g id="line2d_12">
    <path d="M 214.820297 90.688841 
L 370.869644 179.799681 
L 273.669561 311.502251 
L 124.453502 354.882409 
L 46.447602 175.795583 
L 214.820297 90.688841 
" clip-path="url(#p317e7d4797)" style="fill: none; stroke: #0ea5e9; stroke-width: 1.8; stroke-linecap: square"/>
   </g>
   <g id="line2d_13">
    <path d="M 214.820297 93.004575 
L 368.533993 180.55858 
L 270.889643 307.676022 
L 124.157747 355.289481 
L 47.229042 176.049488 
L 214.820297 93.004575 
" clip-path="url(#p317e7d4797)" style="fill: none; stroke: #65a30d; stroke-width: 1.8; stroke-linecap: square"/>
   </g>
   <g id="line2d_14">
    <path d="M 214.820297 196.740552 
L 305.343176 201.090521 
L 325.615465 382.999655 
L 175.743098 284.288338 
L 94.5877 191.437249 
L 214.820297 196.740552 
" clip-path="url(#p317e7d4797)" style="fill: none; stroke: #dc2626; stroke-width: 1.8; stroke-linecap: square"/>
   </g>
   <g id="line2d_15">
    <path d="M 214.820297 163.699461 
L 301.368149 202.382086 
L 256.494895 287.863352 
L 151.329159 317.891242 
L 91.882668 190.558331 
L 214.820297 163.699461 
" clip-path="url(#p317e7d4797)" style="fill: none; stroke: #2563eb; stroke-width: 1.8; stroke-linecap: square"/>
   </g>
   <g id="line2d_16">
    <path d="M 214.820297 42.007188 
L 384.226822 175.459671 
L 277.622579 316.943114 
L 104.025128 382.999655 
L 52.358053 177.716005 
L 214.820297 42.007188 
" clip-path="url(#p317e7d4797)" style="fill: none; stroke: #ea580c; stroke-width: 1.8; stroke-linecap: square"/>
   </g>
   <g id="line2d_17">
    <path d="M 214.820297 230.503188 
L 214.820297 230.503188 
L 248.997669 277.544305 
L 214.820297 230.503188 
L 115.346422 198.182166 
L 214.820297 230.503188 
" clip-path="url(#p317e7d4797)" style="fill: none; stroke: #0f766e; stroke-width: 1.8; stroke-linecap: square"/>
   </g>
   <g id="line2d_18">
    <path d="M 214.820297 54.195795 
L 394.090646 172.25472 
L 269.808313 306.187699 
L 107.491034 378.229244 
L 35.549947 172.25472 
L 214.820297 54.195795 
" clip-path="url(#p317e7d4797)" style="fill: none; stroke: #db2777; stroke-width: 1.8; stroke-linecap: square"/>
   </g>
   <g id="line2d_19">
    <path d="M 214.820297 81.031704 
L 372.268767 179.345078 
L 273.503625 311.27386 
L 116.449737 365.898647 
L 47.684472 176.197466 
L 214.820297 81.031704 
" clip-path="url(#p317e7d4797)" style="fill: none; stroke: #be123c; stroke-width: 1.8; stroke-linecap: square"/>
   </g>
   <g id="patch_12">
    <path d="M 214.820297 42.007188 
C 190.067229 42.007188 165.554853 46.883002 142.686 56.355591 
C 119.817147 65.82818 99.036559 79.713325 81.533497 97.216388 
C 64.030435 114.71945 50.145289 135.500038 40.6727 158.368891 
C 31.200111 181.237744 26.324297 205.75012 26.324297 230.503188 
C 26.324297 255.256255 31.200111 279.768631 40.6727 302.637484 
C 50.145289 325.506337 64.030435 346.286925 81.533497 363.789987 
C 99.036559 381.29305 119.817147 395.178195 142.686 404.650784 
C 165.554853 414.123373 190.067229 418.999188 214.820297 418.999188 
C 239.573364 418.999188 264.08574 414.123373 286.954593 404.650784 
C 309.823446 395.178195 330.604034 381.29305 348.107096 363.789987 
C 365.610159 346.286925 379.495304 325.506337 388.967893 302.637484 
C 398.440482 279.768631 403.316297 255.256255 403.316297 230.503188 
C 403.316297 205.75012 398.440482 181.237744 388.967893 158.368891 
C 379.495304 135.500038 365.610159 114.71945 348.107096 97.216388 
C 330.604034 79.713325 309.823446 65.82818 286.954593 56.355591 
C 264.08574 46.883002 239.573364 42.007188 214.820297 42.007188 
" style="fill: none; stroke: #cbd5e1; stroke-width: 0.8; stroke-linejoin: miter; stroke-linecap: square"/>
   </g>
   <g id="text_11">
    <!-- 多指标综合雷达图 -->
    <g transform="translate(162.820297 17.157188) scale(0.13 -0.13)">
     <defs>
      <path id="HiraginoSansGB-W3-591a" d="M 4781 4896 
C 4627 4877 4448 4864 4186 4864 
L 2970 4864 
C 3059 4960 3098 5011 3174 5101 
C 3309 5261 3315 5274 3379 5344 
L 2918 5459 
C 2829 5280 2701 5114 2470 4877 
C 1939 4326 1331 3910 576 3578 
C 685 3475 749 3392 826 3258 
C 1568 3629 2086 3981 2656 4531 
L 4390 4531 
C 3981 4026 3738 3789 3174 3354 
C 2957 3526 2675 3718 2330 3930 
L 2029 3693 
C 2381 3488 2630 3309 2848 3117 
C 2131 2624 1389 2285 550 2061 
C 659 1926 730 1818 774 1683 
C 1517 1933 2042 2170 2618 2509 
C 3277 2906 3917 3418 4422 3968 
C 4557 4109 4602 4166 4998 4653 
L 4781 4896 
z
M 3962 2547 
C 4102 2688 4154 2746 4397 3021 
L 3981 3181 
C 3846 2944 3616 2694 3283 2413 
C 2765 1971 2125 1626 1274 1338 
C 1376 1235 1427 1165 1517 992 
C 2022 1190 2458 1402 2835 1632 
C 3117 1805 3245 1901 3610 2214 
L 5331 2214 
C 4915 1690 4563 1350 4102 1024 
C 3789 1280 3584 1421 3226 1645 
L 2899 1408 
C 3251 1210 3501 1030 3693 858 
C 3744 813 3744 813 3757 800 
C 2995 333 2022 -6 1037 -154 
C 1165 -326 1190 -371 1267 -557 
C 2477 -256 3136 -13 3866 410 
C 4621 845 5158 1325 5741 2093 
C 5850 2234 5850 2234 5926 2330 
L 5696 2579 
C 5542 2560 5363 2547 5094 2547 
L 3962 2547 
z
" transform="scale(0.015625)"/>
      <path id="HiraginoSansGB-W3-6307" d="M 1709 4064 
L 1709 4698 
C 1709 4941 1722 5146 1754 5338 
L 1261 5338 
C 1293 5139 1306 4934 1306 4685 
L 1306 4064 
L 915 4064 
C 710 4064 563 4077 397 4102 
L 397 3674 
C 570 3699 736 3706 922 3706 
L 1306 3706 
L 1306 2272 
C 678 2080 595 2061 346 2035 
L 448 1587 
C 576 1638 672 1670 858 1722 
C 973 1754 1088 1792 1203 1830 
C 1267 1856 1274 1856 1306 1869 
L 1306 154 
C 1306 19 1261 -19 1088 -19 
C 883 -19 691 0 448 45 
C 512 -115 525 -186 538 -378 
C 736 -390 838 -397 1005 -397 
C 1562 -397 1709 -301 1709 45 
L 1709 2003 
C 2189 2176 2189 2176 2470 2298 
L 2464 2669 
C 2112 2534 1914 2464 1709 2400 
L 1709 3706 
L 1933 3706 
C 2125 3706 2278 3699 2458 3674 
L 2458 4096 
C 2291 4070 2138 4064 1939 4064 
L 1709 4064 
z
M 3142 4109 
C 3930 4218 4102 4250 4672 4397 
C 5043 4493 5382 4602 5779 4755 
L 5459 5114 
C 5088 4864 4211 4614 3142 4461 
L 3142 4704 
C 3142 4973 3155 5146 3181 5318 
L 2707 5318 
C 2739 5120 2746 4966 2746 4685 
L 2746 3584 
C 2746 3110 2957 3027 4186 3027 
C 5197 3027 5466 3053 5651 3174 
C 5843 3302 5926 3520 5990 4038 
C 5862 4070 5734 4128 5600 4211 
C 5542 3398 5530 3392 4301 3392 
C 3258 3392 3142 3418 3142 3674 
L 3142 4109 
z
M 2752 173 
C 2752 -147 2746 -288 2720 -461 
L 3142 -461 
L 3142 -102 
L 5235 -102 
L 5235 -454 
L 5664 -454 
C 5638 -294 5632 -166 5632 186 
L 5632 1990 
C 5632 2214 5638 2374 5658 2496 
C 5504 2477 5370 2470 5094 2470 
L 3290 2470 
C 3021 2470 2886 2477 2726 2496 
C 2746 2362 2752 2208 2752 1997 
L 2752 173 
z
M 3142 2118 
L 5235 2118 
L 5235 1395 
L 3142 1395 
L 3142 2118 
z
M 3142 1050 
L 5235 1050 
L 5235 250 
L 3142 250 
L 3142 1050 
z
" transform="scale(0.015625)"/>
      <path id="HiraginoSansGB-W3-6807" d="M 4083 3085 
L 4083 186 
C 4083 51 4051 32 3885 32 
C 3674 32 3520 45 3200 90 
C 3277 -77 3302 -173 3322 -333 
C 3597 -352 3718 -358 3866 -358 
C 4211 -358 4378 -294 4448 -134 
C 4480 -51 4480 -51 4480 237 
L 4480 3085 
L 5523 3085 
C 5760 3085 5946 3072 6131 3040 
L 6131 3507 
C 5939 3482 5786 3469 5523 3469 
L 3072 3469 
C 2797 3469 2662 3475 2483 3507 
L 2483 3046 
C 2656 3072 2816 3085 3066 3085 
L 4083 3085 
z
M 1658 2950 
C 1888 2630 2035 2387 2189 2093 
L 2490 2355 
C 2221 2739 2042 2963 1658 3405 
L 1658 3738 
L 2016 3738 
C 2163 3738 2304 3725 2438 3706 
L 2438 4115 
C 2310 4096 2176 4083 2016 4083 
L 1658 4083 
L 1658 4672 
C 1658 4947 1670 5146 1696 5325 
L 1235 5325 
C 1261 5133 1274 4947 1274 4666 
L 1274 4083 
L 883 4083 
C 646 4083 506 4096 352 4122 
L 352 3699 
C 512 3725 672 3738 877 3738 
L 1210 3738 
C 1165 3514 1037 3046 960 2822 
C 755 2253 506 1773 205 1402 
C 314 1286 371 1210 461 1037 
C 870 1645 1101 2195 1306 3078 
C 1286 2688 1274 2317 1274 2035 
L 1274 256 
C 1274 -77 1261 -307 1235 -486 
L 1696 -486 
C 1670 -307 1658 -90 1658 256 
L 1658 2950 
z
M 2803 4570 
C 2938 4589 3104 4595 3296 4595 
L 5235 4595 
C 5440 4595 5562 4589 5722 4570 
L 5722 5011 
C 5574 4986 5453 4979 5235 4979 
L 3302 4979 
C 3078 4979 2957 4986 2803 5011 
L 2803 4570 
z
M 3110 2509 
C 2880 1542 2669 1107 2170 557 
C 2330 435 2406 365 2483 243 
C 2989 954 3226 1459 3469 2368 
L 3110 2509 
z
M 6208 499 
C 5997 1171 5606 2086 5357 2483 
L 4986 2355 
C 5338 1766 5510 1338 5830 294 
L 6208 499 
z
" transform="scale(0.015625)"/>
      <path id="HiraginoSansGB-W3-7efc" d="M 4531 4646 
C 4429 4877 4282 5126 4096 5370 
L 3776 5197 
C 3904 5018 3962 4922 4122 4646 
L 3206 4646 
C 2963 4646 2714 4659 2528 4678 
C 2547 4544 2547 4486 2547 4307 
L 2547 3866 
C 2547 3667 2541 3590 2528 3450 
L 2918 3450 
L 2918 4294 
L 5638 4294 
L 5638 3437 
L 6042 3437 
C 6022 3584 6016 3686 6016 3872 
L 6016 4269 
C 6016 4474 6022 4544 6035 4678 
C 5856 4659 5638 4646 5421 4646 
L 4531 4646 
z
M 4058 2272 
L 4058 147 
C 4058 38 4013 13 3846 13 
C 3667 13 3507 26 3226 64 
C 3296 -90 3328 -192 3354 -358 
C 3539 -371 3667 -378 3814 -378 
C 4077 -378 4205 -358 4288 -314 
C 4416 -243 4467 -122 4467 102 
L 4467 2272 
L 5408 2272 
C 5632 2272 5837 2259 6010 2234 
L 6010 2662 
C 5837 2637 5670 2624 5408 2624 
L 3219 2624 
C 2957 2624 2803 2637 2630 2662 
L 2630 2234 
C 2810 2266 2963 2272 3219 2272 
L 4058 2272 
z
M 486 1376 
C 698 1427 787 1446 979 1478 
C 1197 1523 2067 1696 2413 1773 
L 2426 2144 
C 1747 1978 1440 1914 1011 1850 
C 1101 1926 1101 1926 1197 2054 
L 1760 2758 
C 1850 2874 2163 3334 2406 3699 
L 2042 3904 
C 1920 3680 1882 3616 1766 3437 
C 1498 3411 1210 3392 896 3373 
C 1133 3731 1299 4038 1587 4672 
C 1632 4768 1632 4768 1798 5120 
L 1382 5286 
C 1069 4429 1018 4314 813 3898 
C 589 3462 557 3424 358 3347 
L 448 2970 
C 973 3046 1254 3078 1549 3098 
C 1312 2752 1126 2496 864 2176 
C 646 1907 557 1824 365 1766 
L 486 1376 
z
M 3155 1843 
C 2957 1075 2784 710 2355 166 
C 2522 70 2579 26 2682 -96 
C 3098 480 3296 902 3526 1702 
L 3155 1843 
z
M 4954 1677 
C 5274 1120 5504 627 5728 -26 
L 6099 173 
C 5734 1024 5549 1408 5280 1830 
L 4954 1677 
z
M 3085 3245 
C 3245 3264 3379 3270 3578 3270 
L 4992 3270 
C 5197 3270 5325 3264 5478 3245 
L 5478 3661 
C 5325 3642 5216 3635 4992 3635 
L 3584 3635 
C 3360 3635 3238 3642 3085 3661 
L 3085 3245 
z
M 2394 922 
C 1696 646 646 352 358 352 
C 346 352 333 352 314 352 
L 435 -90 
C 512 -64 544 -51 646 -26 
C 1395 173 1747 282 2406 531 
L 2394 922 
z
" transform="scale(0.015625)"/>
      <path id="HiraginoSansGB-W3-5408" d="M 3456 5312 
L 3053 5491 
C 2816 5062 2528 4698 2118 4314 
C 1549 3776 1018 3437 224 3098 
C 358 2950 410 2880 467 2733 
C 698 2842 851 2925 1165 3110 
C 1613 3379 1939 3622 2406 4038 
C 2707 4314 2854 4474 3149 4864 
C 3795 4013 4755 3283 5978 2726 
C 6048 2880 6118 2982 6227 3110 
C 5606 3341 5043 3661 4474 4096 
C 3981 4474 3693 4774 3386 5210 
L 3456 5312 
z
M 1690 2925 
C 1824 2944 1990 2950 2189 2950 
L 4179 2950 
C 4422 2950 4576 2944 4717 2925 
L 4717 3360 
C 4582 3341 4429 3334 4179 3334 
L 2195 3334 
C 1958 3334 1805 3341 1690 3360 
L 1690 2925 
z
M 1645 -416 
L 1645 -45 
L 4736 -45 
L 4736 -416 
L 5197 -416 
C 5171 -230 5158 -38 5158 211 
L 5158 1626 
C 5158 1875 5165 2042 5190 2214 
C 5056 2195 4922 2189 4691 2189 
L 1690 2189 
C 1459 2189 1325 2195 1190 2214 
C 1216 2035 1222 1862 1222 1626 
L 1222 211 
C 1222 -32 1210 -218 1184 -416 
L 1645 -416 
z
M 1645 1798 
L 4736 1798 
L 4736 333 
L 1645 333 
L 1645 1798 
z
" transform="scale(0.015625)"/>
      <path id="HiraginoSansGB-W3-96f7" d="M 3379 4762 
L 4806 4762 
C 5114 4762 5318 4755 5478 4730 
L 5478 5152 
C 5286 5126 5082 5114 4800 5114 
L 1613 5114 
C 1338 5114 1126 5126 941 5152 
L 941 4730 
C 1094 4755 1293 4762 1619 4762 
L 2989 4762 
L 2989 4320 
L 1050 4320 
C 806 4320 634 4326 486 4352 
C 506 4160 512 4077 512 3853 
L 512 3232 
C 512 3034 499 2874 474 2701 
L 890 2701 
L 890 4000 
L 2989 4000 
L 2989 2918 
C 2989 2688 2976 2534 2950 2368 
L 3418 2368 
C 3386 2541 3379 2682 3379 2918 
L 3379 4000 
L 5542 4000 
L 5542 2726 
L 5965 2726 
C 5939 2899 5926 3053 5926 3264 
L 5926 3853 
C 5926 4077 5933 4173 5952 4352 
C 5798 4326 5664 4320 5402 4320 
L 3379 4320 
L 3379 4762 
z
M 2618 3610 
C 2502 3590 2381 3584 2195 3584 
L 1683 3584 
C 1498 3584 1363 3590 1254 3610 
L 1254 3270 
C 1408 3290 1523 3296 1683 3296 
L 2195 3296 
C 2342 3296 2470 3290 2618 3270 
L 2618 3610 
z
M 1613 2118 
C 1363 2118 1203 2125 1056 2144 
C 1075 2003 1082 1824 1082 1555 
L 1082 83 
C 1082 -154 1069 -314 1043 -499 
L 1472 -499 
L 1472 -198 
L 4998 -198 
L 4998 -499 
L 5427 -499 
C 5402 -326 5389 -160 5389 83 
L 5389 1549 
C 5389 1830 5395 1997 5414 2144 
C 5267 2125 5094 2118 4832 2118 
L 1613 2118 
z
M 1472 1798 
L 3002 1798 
L 3002 1158 
L 1472 1158 
L 1472 1798 
z
M 1472 845 
L 3002 845 
L 3002 134 
L 1472 134 
L 1472 845 
z
M 3392 1798 
L 4998 1798 
L 4998 1158 
L 3392 1158 
L 3392 1798 
z
M 3392 845 
L 4998 845 
L 4998 134 
L 3392 134 
L 3392 845 
z
M 2618 2893 
C 2496 2874 2387 2867 2195 2867 
L 1683 2867 
C 1485 2867 1382 2874 1254 2893 
L 1254 2554 
C 1395 2573 1536 2579 1683 2579 
L 2195 2579 
C 2342 2579 2470 2573 2618 2554 
L 2618 2893 
z
M 5171 3610 
C 5056 3590 4934 3584 4749 3584 
L 4198 3584 
C 4013 3584 3878 3590 3770 3610 
L 3770 3270 
C 3917 3290 4038 3296 4198 3296 
L 4749 3296 
C 4896 3296 5030 3290 5171 3270 
L 5171 3610 
z
M 5171 2893 
C 5050 2874 4941 2867 4749 2867 
L 4198 2867 
C 4000 2867 3898 2874 3770 2893 
L 3770 2554 
C 3904 2573 4045 2579 4198 2579 
L 4749 2579 
C 4896 2579 5030 2573 5171 2554 
L 5171 2893 
z
" transform="scale(0.015625)"/>
      <path id="HiraginoSansGB-W3-8fbe" d="M 6061 1126 
C 5555 1869 4922 2656 4115 3514 
C 4128 3616 4134 3648 4134 3699 
L 5402 3699 
C 5645 3699 5875 3686 6035 3661 
L 6035 4102 
C 5875 4077 5670 4064 5421 4064 
L 4166 4064 
C 4179 4326 4186 4538 4192 4915 
C 4192 5158 4192 5235 4211 5363 
L 3757 5363 
C 3776 5229 3782 5075 3782 4762 
C 3782 4531 3776 4365 3763 4064 
L 2707 4064 
C 2464 4064 2246 4077 2080 4102 
L 2080 3661 
C 2253 3686 2464 3699 2707 3699 
L 3731 3699 
C 3674 3098 3546 2694 3290 2259 
C 2989 1760 2605 1427 1952 1114 
C 2061 979 2074 966 2157 813 
C 2170 800 2182 774 2202 742 
C 2752 1075 3155 1408 3418 1741 
C 3699 2099 3917 2579 4045 3078 
C 4294 2784 4397 2662 4614 2381 
C 5280 1536 5434 1325 5722 826 
L 6061 1126 
z
M 1638 2202 
C 1645 2515 1651 2656 1670 2848 
C 1510 2822 1395 2816 1190 2816 
L 838 2816 
C 589 2816 486 2822 346 2848 
L 346 2432 
C 493 2458 595 2464 813 2464 
L 1254 2464 
L 1254 934 
C 1171 909 1075 845 909 730 
C 762 621 518 390 237 90 
L 518 -243 
C 845 218 1203 563 1357 563 
C 1414 563 1485 525 1536 467 
C 1773 192 1773 192 1882 115 
C 2112 -38 2336 -122 2630 -160 
C 2906 -198 3424 -230 3821 -230 
C 4736 -230 5453 -218 6067 -186 
C 6112 19 6118 51 6221 282 
C 5856 230 5709 218 5242 192 
C 5011 179 3930 160 3565 160 
C 3181 160 2618 218 2419 282 
C 2157 365 1990 480 1773 742 
C 1709 819 1677 845 1638 883 
L 1638 2202 
z
M 499 4941 
C 928 4538 1133 4307 1498 3782 
L 1818 4070 
C 1446 4550 1229 4794 794 5203 
L 499 4941 
z
" transform="scale(0.015625)"/>
      <path id="HiraginoSansGB-W3-56fe" d="M 4410 4192 
C 4282 4173 4186 4166 3974 4166 
L 2746 4166 
C 2797 4237 2835 4294 2861 4326 
C 2874 4346 2880 4358 2886 4365 
C 2918 4410 2918 4410 2944 4448 
L 2554 4576 
C 2502 4448 2458 4346 2387 4243 
C 2131 3853 1754 3526 1222 3238 
C 1344 3155 1389 3110 1485 2982 
C 1837 3200 1958 3290 2227 3533 
C 2554 3187 2662 3085 2950 2867 
C 2413 2541 1888 2336 1062 2125 
C 1197 1978 1229 1926 1293 1805 
C 2234 2106 2662 2298 3232 2662 
C 3776 2310 4192 2138 5152 1856 
C 5229 2016 5274 2093 5363 2202 
C 4480 2400 4051 2560 3539 2874 
C 3949 3200 4192 3437 4474 3789 
C 4538 3866 4538 3872 4582 3917 
C 4595 3923 4595 3930 4608 3942 
L 4410 4192 
z
M 4077 3859 
C 3789 3494 3635 3347 3245 3066 
C 2899 3309 2778 3418 2464 3763 
C 2483 3782 2496 3802 2509 3827 
C 2522 3846 2528 3846 2534 3859 
L 4077 3859 
z
M 4582 838 
C 3539 1152 2886 1293 1875 1434 
L 1702 1120 
C 2797 979 3482 826 4448 506 
L 4582 838 
z
M 4147 1728 
C 3603 1939 3309 2035 2656 2208 
L 2483 1907 
C 3168 1734 3462 1638 4013 1408 
L 4147 1728 
z
M 954 -461 
L 954 -134 
L 5446 -134 
L 5446 -461 
L 5888 -461 
C 5856 -250 5850 -64 5850 301 
L 5850 4314 
C 5850 4621 5862 4832 5888 5101 
C 5651 5075 5491 5069 5126 5069 
L 1293 5069 
C 922 5069 755 5075 512 5101 
C 544 4813 550 4621 550 4314 
L 550 307 
C 550 -122 544 -256 512 -461 
L 954 -461 
z
M 954 4717 
L 5446 4717 
L 5446 218 
L 954 218 
L 954 4717 
z
" transform="scale(0.015625)"/>
     </defs>
     <use xlink:href="#HiraginoSansGB-W3-591a"/>
     <use xlink:href="#HiraginoSansGB-W3-6307" transform="translate(99.999985 0)"/>
     <use xlink:href="#HiraginoSansGB-W3-6807" transform="translate(199.999969 0)"/>
     <use xlink:href="#HiraginoSansGB-W3-7efc" transform="translate(299.999954 0)"/>
     <use xlink:href="#HiraginoSansGB-W3-5408" transform="translate(399.999939 0)"/>
     <use xlink:href="#HiraginoSansGB-W3-96f7" transform="translate(499.999924 0)"/>
     <use xlink:href="#HiraginoSansGB-W3-8fbe" transform="translate(599.999908 0)"/>
     <use xlink:href="#HiraginoSansGB-W3-56fe" transform="translate(699.999893 0)"/>
    </g>
   </g>
   <g id="legend_1">
    <g id="line2d_20">
     <path d="M 440.675657 182.746938 
L 448.675657 182.746938 
L 456.675657 182.746938 
" style="fill: none; stroke: #7c3aed; stroke-width: 1.8; stroke-linecap: square"/>
    </g>
    <g id="text_12">
     <!-- dummy_mean -->
     <g transform="translate(463.075657 185.546938) scale(0.08 -0.08)">
      <defs>
       <path id="HiraginoSansGB-W3-64" d="M 3162 38 
L 3674 38 
C 3642 288 3629 454 3629 774 
L 3629 4179 
C 3629 4461 3642 4646 3674 4902 
L 3110 4902 
C 3142 4659 3155 4474 3155 4173 
L 3155 3315 
C 3155 3168 3155 3110 3174 2976 
L 3181 2880 
C 2899 3322 2451 3558 1869 3558 
C 909 3558 294 2861 294 1766 
C 294 653 896 -26 1882 -26 
C 2464 -26 2880 198 3181 666 
C 3168 557 3162 442 3162 352 
L 3162 38 
z
M 1920 3142 
C 2259 3142 2566 3021 2790 2803 
C 3021 2579 3149 2208 3149 1786 
C 3149 941 2669 397 1920 397 
C 1562 397 1261 531 1062 781 
C 896 992 800 1357 800 1779 
C 800 2630 1222 3142 1920 3142 
z
" transform="scale(0.015625)"/>
       <path id="HiraginoSansGB-W3-75" d="M 2970 38 
L 3501 38 
C 3462 294 3450 474 3450 762 
L 3450 2765 
C 3450 3059 3462 3264 3494 3488 
L 2925 3488 
C 2957 3264 2970 3040 2970 2765 
L 2970 1530 
C 2912 1274 2842 1114 2675 890 
C 2419 544 2118 384 1754 384 
C 1254 384 979 704 979 1274 
L 979 2765 
C 979 3046 992 3264 1024 3488 
L 448 3488 
C 480 3283 493 3059 493 2771 
L 493 1190 
C 493 883 557 634 672 448 
C 877 141 1235 -26 1696 -26 
C 2272 -26 2669 211 2989 736 
C 2970 570 2970 525 2970 454 
L 2970 38 
z
" transform="scale(0.015625)"/>
       <path id="HiraginoSansGB-W3-6d" d="M 1018 38 
C 986 294 973 467 973 762 
L 973 2016 
C 973 2182 1069 2483 1184 2656 
C 1382 2963 1690 3142 2022 3142 
C 2483 3142 2739 2835 2739 2272 
L 2739 762 
C 2739 435 2726 269 2694 38 
L 3270 38 
C 3238 256 3226 435 3226 755 
L 3226 2016 
C 3226 2208 3315 2490 3437 2675 
C 3622 2970 3923 3142 4243 3142 
C 4755 3142 4979 2880 4979 2272 
L 4979 762 
C 4979 422 4973 275 4934 38 
L 5510 38 
C 5478 262 5466 435 5466 755 
L 5466 2336 
C 5466 2714 5402 2963 5248 3168 
C 5056 3424 4736 3558 4314 3558 
C 3776 3558 3430 3354 3130 2861 
C 3066 3053 3027 3130 2931 3232 
C 2739 3450 2470 3558 2106 3558 
C 1734 3558 1421 3443 1203 3226 
C 1075 3091 1018 3014 960 2906 
C 966 3027 973 3104 973 3136 
L 973 3488 
L 454 3488 
C 486 3258 499 3085 499 2765 
L 499 762 
C 499 461 486 269 454 38 
L 1018 38 
z
" transform="scale(0.015625)"/>
       <path id="HiraginoSansGB-W3-79" d="M 1587 141 
L 1293 -563 
C 1190 -800 1037 -915 819 -915 
C 698 -915 608 -890 429 -806 
L 294 -1280 
C 538 -1331 678 -1350 819 -1350 
C 1274 -1350 1555 -1165 1722 -755 
L 3155 2739 
C 3322 3142 3430 3392 3469 3488 
L 2874 3488 
C 2848 3309 2790 3136 2662 2810 
L 1837 659 
L 909 2810 
C 806 3053 723 3309 691 3488 
L 64 3488 
C 128 3373 128 3373 416 2739 
L 1587 141 
z
" transform="scale(0.015625)"/>
       <path id="HiraginoSansGB-W3-5f" d="M 0 -582 
L 0 -845 
L 3206 -845 
L 3206 -582 
L 0 -582 
z
" transform="scale(0.015625)"/>
       <path id="HiraginoSansGB-W3-65" d="M 3475 1690 
C 3462 1862 3437 2112 3430 2182 
C 3302 3040 2707 3571 1882 3571 
C 922 3571 294 2854 294 1760 
C 294 653 928 -51 1933 -51 
C 2400 -51 2790 102 3091 397 
C 3238 544 3322 659 3443 928 
L 2995 1107 
C 2816 614 2458 358 1939 358 
C 1555 358 1242 512 1037 794 
C 864 1024 800 1261 781 1690 
L 3475 1690 
z
M 800 2093 
C 838 2336 870 2451 960 2611 
C 1152 2970 1478 3168 1869 3168 
C 2176 3168 2426 3072 2624 2880 
C 2829 2682 2925 2451 2963 2093 
L 800 2093 
z
" transform="scale(0.015625)"/>
       <path id="HiraginoSansGB-W3-61" d="M 2733 38 
L 3251 38 
C 3213 294 3200 454 3200 742 
L 3200 2541 
C 3200 3232 2765 3590 1920 3590 
C 1440 3590 1056 3469 794 3226 
C 634 3085 550 2950 435 2656 
L 934 2547 
C 998 2739 1050 2829 1133 2918 
C 1312 3104 1574 3194 1926 3194 
C 2458 3194 2733 2970 2733 2534 
L 2733 2163 
C 1946 2144 1638 2106 1261 1997 
C 666 1830 346 1459 346 947 
C 346 339 774 -26 1478 -26 
C 1696 -26 1926 19 2144 102 
C 2362 186 2483 269 2733 493 
L 2733 38 
z
M 2733 1370 
C 2733 1114 2682 979 2534 819 
C 2285 544 1882 365 1510 365 
C 1094 365 832 589 832 941 
C 832 1248 992 1466 1318 1600 
C 1606 1722 1971 1766 2733 1786 
L 2733 1370 
z
" transform="scale(0.015625)"/>
       <path id="HiraginoSansGB-W3-6e" d="M 1030 38 
C 998 288 986 480 986 762 
L 986 1997 
C 1037 2253 1114 2413 1280 2630 
C 1549 2976 1837 3136 2195 3136 
C 2701 3136 2976 2829 2976 2253 
L 2976 762 
C 2976 480 2963 288 2931 38 
L 3507 38 
C 3475 250 3462 429 3462 755 
L 3462 2336 
C 3462 2650 3405 2886 3283 3072 
C 3078 3386 2720 3552 2259 3552 
C 1683 3552 1267 3302 966 2778 
C 986 2925 986 2976 986 3053 
L 986 3488 
L 454 3488 
C 493 3232 506 3053 506 2765 
L 506 762 
C 506 454 493 282 454 38 
L 1030 38 
z
" transform="scale(0.015625)"/>
      </defs>
      <use xlink:href="#HiraginoSansGB-W3-64"/>
      <use xlink:href="#HiraginoSansGB-W3-75" transform="translate(64.599991 0)"/>
      <use xlink:href="#HiraginoSansGB-W3-6d" transform="translate(126.399979 0)"/>
      <use xlink:href="#HiraginoSansGB-W3-6d" transform="translate(219.499969 0)"/>
      <use xlink:href="#HiraginoSansGB-W3-79" transform="translate(312.59996 0)"/>
      <use xlink:href="#HiraginoSansGB-W3-5f" transform="translate(367.999954 0)"/>
      <use xlink:href="#HiraginoSansGB-W3-6d" transform="translate(418.099945 0)"/>
      <use xlink:href="#HiraginoSansGB-W3-65" transform="translate(511.199936 0)"/>
      <use xlink:href="#HiraginoSansGB-W3-61" transform="translate(569.999924 0)"/>
      <use xlink:href="#HiraginoSansGB-W3-6e" transform="translate(627.499908 0)"/>
     </g>
    </g>
    <g id="line2d_21">
     <path d="M 440.675657 194.561937 
L 448.675657 194.561937 
L 456.675657 194.561937 
" style="fill: none; stroke: #0ea5e9; stroke-width: 1.8; stroke-linecap: square"/>
    </g>
    <g id="text_13">
     <!-- hist_gradient_boosting_ar -->
     <g transform="translate(463.075657 197.361938) scale(0.08 -0.08)">
      <defs>
       <path id="HiraginoSansGB-W3-68" d="M 1024 38 
C 992 288 979 480 979 762 
L 979 1990 
C 1037 2259 1120 2432 1299 2662 
C 1549 2976 1843 3130 2202 3130 
C 2701 3130 2976 2829 2976 2272 
L 2976 762 
C 2976 442 2963 250 2931 38 
L 3507 38 
C 3475 275 3462 461 3462 755 
L 3462 2362 
C 3462 3110 3014 3552 2266 3552 
C 1875 3552 1581 3443 1306 3206 
C 1152 3078 1082 2982 954 2771 
C 973 2938 973 2989 973 3091 
L 973 4173 
C 973 4499 986 4666 1024 4902 
L 454 4902 
C 486 4666 499 4499 499 4179 
L 499 762 
C 499 442 486 269 454 38 
L 1024 38 
z
" transform="scale(0.015625)"/>
       <path id="HiraginoSansGB-W3-69" d="M 448 4902 
L 448 4333 
L 1069 4333 
L 1069 4902 
L 448 4902 
z
M 467 3488 
C 499 3264 512 3072 512 2765 
L 512 762 
C 512 493 499 314 467 38 
L 1043 38 
C 1011 288 998 467 998 762 
L 998 2765 
C 998 3085 1011 3264 1043 3488 
L 467 3488 
z
" transform="scale(0.015625)"/>
       <path id="HiraginoSansGB-W3-73" d="M 269 973 
C 333 710 378 602 474 467 
C 710 141 1158 -32 1741 -32 
C 2618 -32 3162 365 3162 1005 
C 3162 1267 3053 1510 2854 1670 
C 2662 1818 2458 1894 1837 2035 
C 1440 2118 1274 2170 1126 2253 
C 986 2330 909 2458 909 2605 
C 909 2944 1242 3181 1709 3181 
C 1997 3181 2227 3098 2374 2938 
C 2464 2848 2496 2771 2534 2598 
L 3040 2682 
C 2957 2976 2867 3123 2701 3264 
C 2470 3469 2131 3571 1696 3571 
C 1267 3571 922 3456 698 3238 
C 518 3066 422 2848 422 2618 
C 422 2336 544 2099 768 1946 
C 986 1798 1203 1722 1715 1613 
C 2189 1517 2317 1478 2470 1382 
C 2605 1299 2669 1165 2669 986 
C 2669 608 2317 371 1760 371 
C 1434 371 1178 448 1018 595 
C 890 710 838 826 794 1062 
L 269 973 
z
" transform="scale(0.015625)"/>
       <path id="HiraginoSansGB-W3-74" d="M 858 4442 
C 890 4230 902 3987 902 3731 
L 902 3488 
L 646 3488 
C 378 3488 250 3494 70 3526 
L 70 3040 
C 282 3066 429 3078 646 3078 
L 902 3078 
L 902 787 
C 902 486 954 301 1082 173 
C 1210 45 1427 -26 1709 -26 
C 1971 -26 2170 13 2432 122 
L 2291 570 
C 2080 442 1952 403 1786 403 
C 1651 403 1542 442 1472 512 
C 1414 570 1389 666 1389 851 
L 1389 3078 
L 1696 3078 
C 1984 3078 2144 3072 2349 3040 
L 2349 3526 
C 2125 3494 1990 3488 1696 3488 
L 1389 3488 
L 1389 3731 
C 1389 4006 1402 4237 1434 4442 
L 858 4442 
z
" transform="scale(0.015625)"/>
       <path id="HiraginoSansGB-W3-67" d="M 442 -698 
C 864 -1158 1261 -1338 1894 -1338 
C 2477 -1338 2957 -1165 3226 -851 
C 3482 -550 3597 -147 3597 480 
L 3597 2771 
C 3597 3072 3610 3238 3642 3488 
L 3130 3488 
L 3130 3123 
C 3130 3040 3136 2989 3142 2880 
C 2880 3328 2470 3552 1914 3552 
C 922 3552 294 2861 294 1773 
C 294 704 909 32 1875 32 
C 2266 32 2624 147 2867 365 
C 2976 461 3046 544 3142 717 
C 3117 186 3091 -45 3027 -230 
C 2861 -691 2470 -934 1914 -934 
C 1568 -934 1299 -845 1056 -634 
C 979 -576 941 -531 851 -410 
L 442 -698 
z
M 794 1773 
C 794 2624 1229 3149 1939 3149 
C 2656 3149 3117 2630 3117 1824 
C 3117 992 2630 435 1901 435 
C 1216 435 794 941 794 1773 
z
" transform="scale(0.015625)"/>
       <path id="HiraginoSansGB-W3-72" d="M 2669 3488 
C 2400 3533 2291 3546 2099 3546 
C 1792 3546 1574 3482 1331 3322 
C 1197 3232 1101 3130 979 2931 
C 986 2976 986 3072 986 3123 
L 986 3488 
L 454 3488 
C 486 3258 499 3085 499 2765 
L 499 762 
C 499 499 486 333 454 38 
L 1030 38 
C 998 288 986 467 986 755 
L 986 2061 
C 1011 2349 1069 2502 1222 2701 
C 1414 2957 1683 3091 2010 3091 
C 2170 3091 2285 3072 2528 2995 
L 2669 3488 
z
" transform="scale(0.015625)"/>
       <path id="HiraginoSansGB-W3-62" d="M 966 38 
L 966 397 
C 966 480 960 531 947 653 
C 1050 499 1107 429 1248 320 
C 1542 77 1837 -26 2240 -26 
C 3238 -26 3840 653 3840 1779 
C 3840 2893 3251 3558 2266 3558 
C 1683 3558 1248 3328 947 2854 
C 966 3021 973 3136 973 3309 
L 973 4173 
C 973 4480 986 4666 1018 4902 
L 454 4902 
C 486 4653 499 4448 499 4179 
L 499 774 
C 499 467 486 282 454 38 
L 966 38 
z
M 3347 1786 
C 3347 909 2925 390 2208 390 
C 1472 390 973 954 973 1779 
C 973 2598 1472 3149 2227 3149 
C 2938 3149 3347 2650 3347 1786 
z
" transform="scale(0.015625)"/>
       <path id="HiraginoSansGB-W3-6f" d="M 2010 -45 
C 3040 -45 3706 672 3706 1766 
C 3706 2867 3046 3571 2003 3571 
C 960 3571 294 2867 294 1760 
C 294 653 960 -45 2010 -45 
z
M 2016 3168 
C 2752 3168 3213 2630 3213 1766 
C 3213 902 2752 371 2003 371 
C 1254 371 787 902 787 1773 
C 787 2637 1254 3168 2016 3168 
z
" transform="scale(0.015625)"/>
      </defs>
      <use xlink:href="#HiraginoSansGB-W3-68"/>
      <use xlink:href="#HiraginoSansGB-W3-69" transform="translate(61.699997 0)"/>
      <use xlink:href="#HiraginoSansGB-W3-73" transform="translate(85.499985 0)"/>
      <use xlink:href="#HiraginoSansGB-W3-74" transform="translate(139.199982 0)"/>
      <use xlink:href="#HiraginoSansGB-W3-5f" transform="translate(178.399979 0)"/>
      <use xlink:href="#HiraginoSansGB-W3-67" transform="translate(228.499969 0)"/>
      <use xlink:href="#HiraginoSansGB-W3-72" transform="translate(292.59996 0)"/>
      <use xlink:href="#HiraginoSansGB-W3-61" transform="translate(335.599945 0)"/>
      <use xlink:href="#HiraginoSansGB-W3-64" transform="translate(393.09993 0)"/>
      <use xlink:href="#HiraginoSansGB-W3-69" transform="translate(457.699921 0)"/>
      <use xlink:href="#HiraginoSansGB-W3-65" transform="translate(481.499908 0)"/>
      <use xlink:href="#HiraginoSansGB-W3-6e" transform="translate(540.299896 0)"/>
      <use xlink:href="#HiraginoSansGB-W3-74" transform="translate(602.099884 0)"/>
      <use xlink:href="#HiraginoSansGB-W3-5f" transform="translate(641.299881 0)"/>
      <use xlink:href="#HiraginoSansGB-W3-62" transform="translate(691.399872 0)"/>
      <use xlink:href="#HiraginoSansGB-W3-6f" transform="translate(755.999863 0)"/>
      <use xlink:href="#HiraginoSansGB-W3-6f" transform="translate(818.499847 0)"/>
      <use xlink:href="#HiraginoSansGB-W3-73" transform="translate(880.999832 0)"/>
      <use xlink:href="#HiraginoSansGB-W3-74" transform="translate(934.699829 0)"/>
      <use xlink:href="#HiraginoSansGB-W3-69" transform="translate(973.899826 0)"/>
      <use xlink:href="#HiraginoSansGB-W3-6e" transform="translate(997.699814 0)"/>
      <use xlink:href="#HiraginoSansGB-W3-67" transform="translate(1059.499802 0)"/>
      <use xlink:href="#HiraginoSansGB-W3-5f" transform="translate(1123.599792 0)"/>
      <use xlink:href="#HiraginoSansGB-W3-61" transform="translate(1173.699783 0)"/>
      <use xlink:href="#HiraginoSansGB-W3-72" transform="translate(1231.199768 0)"/>
     </g>
    </g>
    <g id="line2d_22">
     <path d="M 440.675657 206.361938 
L 448.675657 206.361938 
L 456.675657 206.361938 
" style="fill: none; stroke: #65a30d; stroke-width: 1.8; stroke-linecap: square"/>
    </g>
    <g id="text_14">
     <!-- lightgbm_ar -->
     <g transform="translate(463.075657 209.161938) scale(0.08 -0.08)">
      <defs>
       <path id="HiraginoSansGB-W3-6c" d="M 454 4902 
C 486 4672 499 4499 499 4186 
L 499 755 
C 499 467 486 269 454 38 
L 1030 38 
C 998 294 986 467 986 755 
L 986 4179 
C 986 4499 998 4672 1030 4902 
L 454 4902 
z
" transform="scale(0.015625)"/>
      </defs>
      <use xlink:href="#HiraginoSansGB-W3-6c"/>
      <use xlink:href="#HiraginoSansGB-W3-69" transform="translate(23.199997 0)"/>
      <use xlink:href="#HiraginoSansGB-W3-67" transform="translate(46.999985 0)"/>
      <use xlink:href="#HiraginoSansGB-W3-68" transform="translate(111.099976 0)"/>
      <use xlink:href="#HiraginoSansGB-W3-74" transform="translate(172.799973 0)"/>
      <use xlink:href="#HiraginoSansGB-W3-67" transform="translate(211.999969 0)"/>
      <use xlink:href="#HiraginoSansGB-W3-62" transform="translate(276.09996 0)"/>
      <use xlink:href="#HiraginoSansGB-W3-6d" transform="translate(340.699951 0)"/>
      <use xlink:href="#HiraginoSansGB-W3-5f" transform="translate(433.799942 0)"/>
      <use xlink:href="#HiraginoSansGB-W3-61" transform="translate(483.899933 0)"/>
      <use xlink:href="#HiraginoSansGB-W3-72" transform="translate(541.399918 0)"/>
     </g>
    </g>
    <g id="line2d_23">
     <path d="M 440.675657 218.161938 
L 448.675657 218.161938 
L 456.675657 218.161938 
" style="fill: none; stroke: #dc2626; stroke-width: 1.8; stroke-linecap: square"/>
    </g>
    <g id="text_15">
     <!-- linear_trend -->
     <g transform="translate(463.075657 220.961938) scale(0.08 -0.08)">
      <use xlink:href="#HiraginoSansGB-W3-6c"/>
      <use xlink:href="#HiraginoSansGB-W3-69" transform="translate(23.199997 0)"/>
      <use xlink:href="#HiraginoSansGB-W3-6e" transform="translate(46.999985 0)"/>
      <use xlink:href="#HiraginoSansGB-W3-65" transform="translate(108.799973 0)"/>
      <use xlink:href="#HiraginoSansGB-W3-61" transform="translate(167.59996 0)"/>
      <use xlink:href="#HiraginoSansGB-W3-72" transform="translate(225.099945 0)"/>
      <use xlink:href="#HiraginoSansGB-W3-5f" transform="translate(268.09993 0)"/>
      <use xlink:href="#HiraginoSansGB-W3-74" transform="translate(318.199921 0)"/>
      <use xlink:href="#HiraginoSansGB-W3-72" transform="translate(357.399918 0)"/>
      <use xlink:href="#HiraginoSansGB-W3-65" transform="translate(400.399902 0)"/>
      <use xlink:href="#HiraginoSansGB-W3-6e" transform="translate(459.19989 0)"/>
      <use xlink:href="#HiraginoSansGB-W3-64" transform="translate(520.999878 0)"/>
     </g>
    </g>
    <g id="line2d_24">
     <path d="M 440.675657 229.921938 
L 448.675657 229.921938 
L 456.675657 229.921938 
" style="fill: none; stroke: #2563eb; stroke-width: 1.8; stroke-linecap: square"/>
    </g>
    <g id="text_16">
     <!-- moving_average -->
     <g transform="translate(463.075657 232.721938) scale(0.08 -0.08)">
      <defs>
       <path id="HiraginoSansGB-W3-76" d="M 70 3488 
C 205 3206 269 3066 390 2784 
L 1280 627 
C 1408 314 1453 198 1491 38 
L 1997 38 
C 2042 237 2061 275 2202 627 
L 3098 2784 
C 3309 3283 3328 3334 3411 3488 
L 2810 3488 
C 2778 3309 2733 3149 2618 2861 
L 1888 973 
C 1830 832 1792 723 1741 563 
C 1702 691 1632 896 1600 979 
L 870 2861 
C 768 3110 704 3322 672 3488 
L 70 3488 
z
" transform="scale(0.015625)"/>
      </defs>
      <use xlink:href="#HiraginoSansGB-W3-6d"/>
      <use xlink:href="#HiraginoSansGB-W3-6f" transform="translate(93.099991 0)"/>
      <use xlink:href="#HiraginoSansGB-W3-76" transform="translate(155.599976 0)"/>
      <use xlink:href="#HiraginoSansGB-W3-69" transform="translate(209.999969 0)"/>
      <use xlink:href="#HiraginoSansGB-W3-6e" transform="translate(233.799957 0)"/>
      <use xlink:href="#HiraginoSansGB-W3-67" transform="translate(295.599945 0)"/>
      <use xlink:href="#HiraginoSansGB-W3-5f" transform="translate(359.699936 0)"/>
      <use xlink:href="#HiraginoSansGB-W3-61" transform="translate(409.799927 0)"/>
      <use xlink:href="#HiraginoSansGB-W3-76" transform="translate(467.299911 0)"/>
      <use xlink:href="#HiraginoSansGB-W3-65" transform="translate(521.699905 0)"/>
      <use xlink:href="#HiraginoSansGB-W3-72" transform="translate(580.499893 0)"/>
      <use xlink:href="#HiraginoSansGB-W3-61" transform="translate(623.499878 0)"/>
      <use xlink:href="#HiraginoSansGB-W3-67" transform="translate(680.999863 0)"/>
      <use xlink:href="#HiraginoSansGB-W3-65" transform="translate(745.099854 0)"/>
     </g>
    </g>
    <g id="line2d_25">
     <path d="M 440.675657 241.721938 
L 448.675657 241.721938 
L 456.675657 241.721938 
" style="fill: none; stroke: #ea580c; stroke-width: 1.8; stroke-linecap: square"/>
    </g>
    <g id="text_17">
     <!-- ridge_ar -->
     <g transform="translate(463.075657 244.521938) scale(0.08 -0.08)">
      <use xlink:href="#HiraginoSansGB-W3-72"/>
      <use xlink:href="#HiraginoSansGB-W3-69" transform="translate(42.999985 0)"/>
      <use xlink:href="#HiraginoSansGB-W3-64" transform="translate(66.799973 0)"/>
      <use xlink:href="#HiraginoSansGB-W3-67" transform="translate(131.399963 0)"/>
      <use xlink:href="#HiraginoSansGB-W3-65" transform="translate(195.499954 0)"/>
      <use xlink:href="#HiraginoSansGB-W3-5f" transform="translate(254.299942 0)"/>
      <use xlink:href="#HiraginoSansGB-W3-61" transform="translate(304.399933 0)"/>
      <use xlink:href="#HiraginoSansGB-W3-72" transform="translate(361.899918 0)"/>
     </g>
    </g>
    <g id="line2d_26">
     <path d="M 440.675657 253.521937 
L 448.675657 253.521937 
L 456.675657 253.521937 
" style="fill: none; stroke: #0f766e; stroke-width: 1.8; stroke-linecap: square"/>
    </g>
    <g id="text_18">
     <!-- seasonal_naive -->
     <g transform="translate(463.075657 256.321937) scale(0.08 -0.08)">
      <use xlink:href="#HiraginoSansGB-W3-73"/>
      <use xlink:href="#HiraginoSansGB-W3-65" transform="translate(53.699997 0)"/>
      <use xlink:href="#HiraginoSansGB-W3-61" transform="translate(112.499985 0)"/>
      <use xlink:href="#HiraginoSansGB-W3-73" transform="translate(169.999969 0)"/>
      <use xlink:href="#HiraginoSansGB-W3-6f" transform="translate(223.699966 0)"/>
      <use xlink:href="#HiraginoSansGB-W3-6e" transform="translate(286.199951 0)"/>
      <use xlink:href="#HiraginoSansGB-W3-61" transform="translate(347.999939 0)"/>
      <use xlink:href="#HiraginoSansGB-W3-6c" transform="translate(405.499924 0)"/>
      <use xlink:href="#HiraginoSansGB-W3-5f" transform="translate(428.699921 0)"/>
      <use xlink:href="#HiraginoSansGB-W3-6e" transform="translate(478.799911 0)"/>
      <use xlink:href="#HiraginoSansGB-W3-61" transform="translate(540.599899 0)"/>
      <use xlink:href="#HiraginoSansGB-W3-69" transform="translate(598.099884 0)"/>
      <use xlink:href="#HiraginoSansGB-W3-76" transform="translate(621.899872 0)"/>
      <use xlink:href="#HiraginoSansGB-W3-65" transform="translate(676.299866 0)"/>
     </g>
    </g>
    <g id="line2d_27">
     <path d="M 440.675657 265.354438 
L 448.675657 265.354438 
L 456.675657 265.354438 
" style="fill: none; stroke: #db2777; stroke-width: 1.8; stroke-linecap: square"/>
    </g>
    <g id="text_19">
     <!-- tabpfn_ts -->
     <g transform="translate(463.075657 268.154438) scale(0.08 -0.08)">
      <defs>
       <path id="HiraginoSansGB-W3-70" d="M 1018 -1306 
C 986 -1069 973 -883 973 -582 
L 973 211 
C 973 384 966 480 947 659 
C 1248 218 1702 -19 2266 -19 
C 3226 -19 3840 678 3840 1766 
C 3840 2880 3238 3552 2253 3552 
C 1683 3552 1235 3315 947 2861 
C 960 2970 966 3040 966 3123 
L 966 3488 
L 454 3488 
C 486 3245 499 3059 499 2752 
L 499 -589 
C 499 -851 486 -1056 454 -1306 
L 1018 -1306 
z
M 2221 397 
C 1888 397 1568 518 1344 736 
C 1114 960 979 1344 979 1760 
C 979 2586 1478 3136 2214 3136 
C 2931 3136 3341 2637 3341 1766 
C 3341 915 2918 397 2221 397 
z
" transform="scale(0.015625)"/>
       <path id="HiraginoSansGB-W3-66" d="M 915 3078 
L 915 762 
C 915 493 902 275 870 38 
L 1446 38 
C 1414 275 1402 454 1402 755 
L 1402 3078 
L 1722 3078 
C 2035 3078 2182 3072 2400 3040 
L 2400 3526 
C 2163 3494 1997 3488 1722 3488 
L 1402 3488 
L 1402 3840 
C 1402 4141 1427 4275 1498 4378 
C 1581 4493 1728 4550 1933 4550 
C 2131 4550 2291 4506 2464 4403 
L 2598 4832 
C 2368 4922 2170 4960 1920 4960 
C 1562 4960 1267 4845 1114 4646 
C 966 4461 915 4256 915 3866 
L 915 3488 
L 653 3488 
C 397 3488 243 3501 70 3526 
L 70 3040 
C 269 3066 429 3078 653 3078 
L 915 3078 
z
" transform="scale(0.015625)"/>
      </defs>
      <use xlink:href="#HiraginoSansGB-W3-74"/>
      <use xlink:href="#HiraginoSansGB-W3-61" transform="translate(39.199997 0)"/>
      <use xlink:href="#HiraginoSansGB-W3-62" transform="translate(96.699982 0)"/>
      <use xlink:href="#HiraginoSansGB-W3-70" transform="translate(161.299973 0)"/>
      <use xlink:href="#HiraginoSansGB-W3-66" transform="translate(225.999969 0)"/>
      <use xlink:href="#HiraginoSansGB-W3-6e" transform="translate(267.699966 0)"/>
      <use xlink:href="#HiraginoSansGB-W3-5f" transform="translate(329.499954 0)"/>
      <use xlink:href="#HiraginoSansGB-W3-74" transform="translate(379.599945 0)"/>
      <use xlink:href="#HiraginoSansGB-W3-73" transform="translate(418.799942 0)"/>
     </g>
    </g>
    <g id="line2d_28">
     <path d="M 440.675657 277.114438 
L 448.675657 277.114438 
L 456.675657 277.114438 
" style="fill: none; stroke: #be123c; stroke-width: 1.8; stroke-linecap: square"/>
    </g>
    <g id="text_20">
     <!-- xgboost_ar -->
     <g transform="translate(463.075657 279.914438) scale(0.08 -0.08)">
      <defs>
       <path id="HiraginoSansGB-W3-78" d="M 3315 38 
C 2918 563 2918 563 2854 646 
L 2010 1824 
L 2816 2957 
C 2925 3110 3059 3283 3206 3488 
L 2592 3488 
C 2534 3360 2451 3219 2342 3059 
L 1722 2157 
L 1094 3059 
C 973 3232 909 3341 845 3488 
L 218 3488 
C 512 3098 563 3034 602 2976 
L 1427 1824 
L 538 595 
C 397 390 224 166 122 38 
L 755 38 
C 851 218 902 314 1005 454 
L 1715 1491 
L 2394 512 
C 2528 307 2592 205 2682 38 
L 3315 38 
z
" transform="scale(0.015625)"/>
      </defs>
      <use xlink:href="#HiraginoSansGB-W3-78"/>
      <use xlink:href="#HiraginoSansGB-W3-67" transform="translate(53.599991 0)"/>
      <use xlink:href="#HiraginoSansGB-W3-62" transform="translate(117.699982 0)"/>
      <use xlink:href="#HiraginoSansGB-W3-6f" transform="translate(182.299973 0)"/>
      <use xlink:href="#HiraginoSansGB-W3-6f" transform="translate(244.799957 0)"/>
      <use xlink:href="#HiraginoSansGB-W3-73" transform="translate(307.299942 0)"/>
      <use xlink:href="#HiraginoSansGB-W3-74" transform="translate(360.999939 0)"/>
      <use xlink:href="#HiraginoSansGB-W3-5f" transform="translate(400.199936 0)"/>
      <use xlink:href="#HiraginoSansGB-W3-61" transform="translate(450.299927 0)"/>
      <use xlink:href="#HiraginoSansGB-W3-72" transform="translate(507.799911 0)"/>
     </g>
    </g>
   </g>
  </g>
 </g>
 <defs>
  <clipPath id="p317e7d4797">
   <path d="M 403.316297 230.503188 
C 403.316297 205.75012 398.440482 181.237744 388.967893 158.368891 
C 379.495304 135.500038 365.610159 114.71945 348.107096 97.216388 
C 330.604034 79.713325 309.823446 65.82818 286.954593 56.355591 
C 264.08574 46.883002 239.573364 42.007188 214.820297 42.007188 
C 190.067229 42.007188 165.554853 46.883002 142.686 56.355591 
C 119.817147 65.82818 99.036559 79.713325 81.533497 97.216388 
C 64.030435 114.71945 50.145289 135.500038 40.6727 158.368891 
C 31.200111 181.237744 26.324297 205.75012 26.324297 230.503187 
C 26.324297 255.256255 31.200111 279.768631 40.6727 302.637484 
C 50.145289 325.506337 64.030435 346.286925 81.533497 363.789987 
C 99.036559 381.29305 119.817147 395.178195 142.686 404.650784 
C 165.554853 414.123373 190.067229 418.999188 214.820297 418.999188 
C 239.573364 418.999188 264.08574 414.123373 286.954593 404.650784 
C 309.823446 395.178195 330.604034 381.29305 348.107096 363.789987 
C 365.610159 346.286925 379.495304 325.506337 388.967893 302.637484 
C 398.440482 279.768631 403.316297 255.256255 403.316297 230.503188 
M 214.820297 230.503188 
C 214.820297 230.503188 214.820297 230.503188 214.820297 230.503188 
C 214.820297 230.503188 214.820297 230.503188 214.820297 230.503188 
C 214.820297 230.503188 214.820297 230.503188 214.820297 230.503188 
C 214.820297 230.503188 214.820297 230.503188 214.820297 230.503188 
C 214.820297 230.503188 214.820297 230.503188 214.820297 230.503188 
C 214.820297 230.503188 214.820297 230.503188 214.820297 230.503188 
C 214.820297 230.503188 214.820297 230.503188 214.820297 230.503188 
C 214.820297 230.503188 214.820297 230.503188 214.820297 230.503188 
C 214.820297 230.503188 214.820297 230.503188 214.820297 230.503188 
C 214.820297 230.503188 214.820297 230.503188 214.820297 230.503188 
C 214.820297 230.503188 214.820297 230.503188 214.820297 230.503188 
C 214.820297 230.503188 214.820297 230.503188 214.820297 230.503188 
C 214.820297 230.503188 214.820297 230.503188 214.820297 230.503188 
C 214.820297 230.503188 214.820297 230.503188 214.820297 230.503188 
C 214.820297 230.503188 214.820297 230.503188 214.820297 230.503188 
C 214.820297 230.503188 214.820297 230.503188 214.820297 230.503188 
z
"/>
  </clipPath>
 </defs>
</svg>
