<?xml version="1.0" encoding="utf-8" standalone="no"?>
<!DOCTYPE svg PUBLIC "-//W3C//DTD SVG 1.1//EN"
  "http://www.w3.org/Graphics/SVG/1.1/DTD/svg11.dtd">
<svg xmlns:xlink="http://www.w3.org/1999/xlink" width="684pt" height="158.544pt" viewBox="0 0 684 158.544" xmlns="http://www.w3.org/2000/svg" version="1.1">
 <metadata>
  <rdf:RDF xmlns:dc="http://purl.org/dc/elements/1.1/" xmlns:cc="http://creativecommons.org/ns#" xmlns:rdf="http://www.w3.org/1999/02/22-rdf-syntax-ns#">
   <cc:Work>
    <dc:type rdf:resource="http://purl.org/dc/dcmitype/StillImage"/>
    <dc:date>2026-05-28T17:09:27.490818</dc:date>
    <dc:format>image/svg+xml</dc:format>
    <dc:creator>
     <cc:Agent>
      <dc:title>Matplotlib v3.10.6, https://matplotlib.org/</dc:title>
     </cc:Agent>
    </dc:creator>
   </cc:Work>
  </rdf:RDF>
 </metadata>
 <defs>
  <style type="text/css">*{stroke-linejoin: round; stroke-linecap: butt}</style>
 </defs>
 <g id="figure_1">
  <g id="patch_1">
   <path d="M 0 158.544 
L 684 158.544 
L 684 0 
L 0 0 
z
" style="fill: #fbfcfe"/>
  </g>
  <g id="axes_1">
   <g id="patch_2">
    <path d="M 33.984 128.28096 
L 147.816 128.28096 
Q 174.6 128.28096 174.6 122.5152 
L 174.6 36.0288 
Q 174.6 30.26304 147.816 30.26304 
L 33.984 30.26304 
Q 7.2 30.26304 7.2 36.0288 
L 7.2 122.5152 
Q 7.2 128.28096 33.984 128.28096 
z
" clip-path="url(#p9baa869bb4)" style="fill: #ffffff; stroke: #dbe4ef; stroke-width: 1.2; stroke-linejoin: miter"/>
   </g>
   <g id="patch_3">
    <path d="M 201.384 128.28096 
L 315.216 128.28096 
Q 342 128.28096 342 122.5152 
L 342 36.0288 
Q 342 30.26304 315.216 30.26304 
L 201.384 30.26304 
Q 174.6 30.26304 174.6 36.0288 
L 174.6 122.5152 
Q 174.6 128.28096 201.384 128.28096 
z
" clip-path="url(#p9baa869bb4)" style="fill: #ffffff; stroke: #dbe4ef; stroke-width: 1.2; stroke-linejoin: miter"/>
   </g>
   <g id="patch_4">
    <path d="M 368.784 128.28096 
L 482.616 128.28096 
Q 509.4 128.28096 509.4 122.5152 
L 509.4 36.0288 
Q 509.4 30.26304 482.616 30.26304 
L 368.784 30.26304 
Q 342 30.26304 342 36.0288 
L 342 122.5152 
Q 342 128.28096 368.784 128.28096 
z
" clip-path="url(#p9baa869bb4)" style="fill: #ffffff; stroke: #dbe4ef; stroke-width: 1.2; stroke-linejoin: miter"/>
   </g>
   <g id="patch_5">
    <path d="M 536.184 128.28096 
L 650.016 128.28096 
Q 676.8 128.28096 676.8 122.5152 
L 676.8 36.0288 
Q 676.8 30.26304 650.016 30.26304 
L 536.184 30.26304 
Q 509.4 30.26304 509.4 36.0288 
L 509.4 122.5152 
Q 509.4 128.28096 536.184 128.28096 
z
" clip-path="url(#p9baa869bb4)" style="fill: #ffffff; stroke: #dbe4ef; stroke-width: 1.2; stroke-linejoin: miter"/>
   </g>
   <g id="text_1">
    <!-- Best overall -->
    <g style="fill: #64748b" transform="translate(33.984 56.20896) scale(0.09 -0.09)">
     <defs>
      <path id="HiraginoSansGB-W3-42" d="M 2630 38 
C 3610 38 4173 525 4173 1382 
C 4173 1792 4038 2118 3776 2342 
C 3603 2490 3450 2554 3155 2611 
C 3411 2694 3526 2752 3661 2867 
C 3891 3072 4006 3354 4006 3725 
C 4006 4480 3488 4902 2560 4902 
L 1197 4902 
C 826 4902 698 4902 499 4915 
C 538 4685 550 4512 550 4237 
L 550 813 
C 550 442 538 275 493 19 
C 717 32 915 38 1197 38 
L 2630 38 
z
M 1043 2816 
L 1043 4467 
L 2547 4467 
C 3181 4467 3501 4198 3501 3667 
C 3501 3130 3149 2816 2554 2816 
L 1043 2816 
z
M 1043 2381 
L 2573 2381 
C 3283 2381 3654 2054 3654 1421 
C 3654 806 3283 474 2586 474 
L 1043 474 
L 1043 2381 
z
" transform="scale(0.015625)"/>
      <path id="HiraginoSansGB-W3-65" d="M 3475 1690 
C 3462 1862 3437 2112 3430 2182 
C 3302 3040 2707 3571 1882 3571 
C 922 3571 294 2854 294 1760 
C 294 653 928 -51 1933 -51 
C 2400 -51 2790 102 3091 397 
C 3238 544 3322 659 3443 928 
L 2995 1107 
C 2816 614 2458 358 1939 358 
C 1555 358 1242 512 1037 794 
C 864 1024 800 1261 781 1690 
L 3475 1690 
z
M 800 2093 
C 838 2336 870 2451 960 2611 
C 1152 2970 1478 3168 1869 3168 
C 2176 3168 2426 3072 2624 2880 
C 2829 2682 2925 2451 2963 2093 
L 800 2093 
z
" transform="scale(0.015625)"/>
      <path id="HiraginoSansGB-W3-73" d="M 269 973 
C 333 710 378 602 474 467 
C 710 141 1158 -32 1741 -32 
C 2618 -32 3162 365 3162 1005 
C 3162 1267 3053 1510 2854 1670 
C 2662 1818 2458 1894 1837 2035 
C 1440 2118 1274 2170 1126 2253 
C 986 2330 909 2458 909 2605 
C 909 2944 1242 3181 1709 3181 
C 1997 3181 2227 3098 2374 2938 
C 2464 2848 2496 2771 2534 2598 
L 3040 2682 
C 2957 2976 2867 3123 2701 3264 
C 2470 3469 2131 3571 1696 3571 
C 1267 3571 922 3456 698 3238 
C 518 3066 422 2848 422 2618 
C 422 2336 544 2099 768 1946 
C 986 1798 1203 1722 1715 1613 
C 2189 1517 2317 1478 2470 1382 
C 2605 1299 2669 1165 2669 986 
C 2669 608 2317 371 1760 371 
C 1434 371 1178 448 1018 595 
C 890 710 838 826 794 1062 
L 269 973 
z
" transform="scale(0.015625)"/>
      <path id="HiraginoSansGB-W3-74" d="M 858 4442 
C 890 4230 902 3987 902 3731 
L 902 3488 
L 646 3488 
C 378 3488 250 3494 70 3526 
L 70 3040 
C 282 3066 429 3078 646 3078 
L 902 3078 
L 902 787 
C 902 486 954 301 1082 173 
C 1210 45 1427 -26 1709 -26 
C 1971 -26 2170 13 2432 122 
L 2291 570 
C 2080 442 1952 403 1786 403 
C 1651 403 1542 442 1472 512 
C 1414 570 1389 666 1389 851 
L 1389 3078 
L 1696 3078 
C 1984 3078 2144 3072 2349 3040 
L 2349 3526 
C 2125 3494 1990 3488 1696 3488 
L 1389 3488 
L 1389 3731 
C 1389 4006 1402 4237 1434 4442 
L 858 4442 
z
" transform="scale(0.015625)"/>
      <path id="HiraginoSansGB-W3-20" transform="scale(0.015625)"/>
      <path id="HiraginoSansGB-W3-6f" d="M 2010 -45 
C 3040 -45 3706 672 3706 1766 
C 3706 2867 3046 3571 2003 3571 
C 960 3571 294 2867 294 1760 
C 294 653 960 -45 2010 -45 
z
M 2016 3168 
C 2752 3168 3213 2630 3213 1766 
C 3213 902 2752 371 2003 371 
C 1254 371 787 902 787 1773 
C 787 2637 1254 3168 2016 3168 
z
" transform="scale(0.015625)"/>
      <path id="HiraginoSansGB-W3-76" d="M 70 3488 
C 205 3206 269 3066 390 2784 
L 1280 627 
C 1408 314 1453 198 1491 38 
L 1997 38 
C 2042 237 2061 275 2202 627 
L 3098 2784 
C 3309 3283 3328 3334 3411 3488 
L 2810 3488 
C 2778 3309 2733 3149 2618 2861 
L 1888 973 
C 1830 832 1792 723 1741 563 
C 1702 691 1632 896 1600 979 
L 870 2861 
C 768 3110 704 3322 672 3488 
L 70 3488 
z
" transform="scale(0.015625)"/>
      <path id="HiraginoSansGB-W3-72" d="M 2669 3488 
C 2400 3533 2291 3546 2099 3546 
C 1792 3546 1574 3482 1331 3322 
C 1197 3232 1101 3130 979 2931 
C 986 2976 986 3072 986 3123 
L 986 3488 
L 454 3488 
C 486 3258 499 3085 499 2765 
L 499 762 
C 499 499 486 333 454 38 
L 1030 38 
C 998 288 986 467 986 755 
L 986 2061 
C 1011 2349 1069 2502 1222 2701 
C 1414 2957 1683 3091 2010 3091 
C 2170 3091 2285 3072 2528 2995 
L 2669 3488 
z
" transform="scale(0.015625)"/>
      <path id="HiraginoSansGB-W3-61" d="M 2733 38 
L 3251 38 
C 3213 294 3200 454 3200 742 
L 3200 2541 
C 3200 3232 2765 3590 1920 3590 
C 1440 3590 1056 3469 794 3226 
C 634 3085 550 2950 435 2656 
L 934 2547 
C 998 2739 1050 2829 1133 2918 
C 1312 3104 1574 3194 1926 3194 
C 2458 3194 2733 2970 2733 2534 
L 2733 2163 
C 1946 2144 1638 2106 1261 1997 
C 666 1830 346 1459 346 947 
C 346 339 774 -26 1478 -26 
C 1696 -26 1926 19 2144 102 
C 2362 186 2483 269 2733 493 
L 2733 38 
z
M 2733 1370 
C 2733 1114 2682 979 2534 819 
C 2285 544 1882 365 1510 365 
C 1094 365 832 589 832 941 
C 832 1248 992 1466 1318 1600 
C 1606 1722 1971 1766 2733 1786 
L 2733 1370 
z
" transform="scale(0.015625)"/>
      <path id="HiraginoSansGB-W3-6c" d="M 454 4902 
C 486 4672 499 4499 499 4186 
L 499 755 
C 499 467 486 269 454 38 
L 1030 38 
C 998 294 986 467 986 755 
L 986 4179 
C 986 4499 998 4672 1030 4902 
L 454 4902 
z
" transform="scale(0.015625)"/>
     </defs>
     <use xlink:href="#HiraginoSansGB-W3-42"/>
     <use xlink:href="#HiraginoSansGB-W3-65" transform="translate(71.199982 0)"/>
     <use xlink:href="#HiraginoSansGB-W3-73" transform="translate(129.999969 0)"/>
     <use xlink:href="#HiraginoSansGB-W3-74" transform="translate(183.699966 0)"/>
     <use xlink:href="#HiraginoSansGB-W3-20" transform="translate(222.899963 0)"/>
     <use xlink:href="#HiraginoSansGB-W3-6f" transform="translate(256.199951 0)"/>
     <use xlink:href="#HiraginoSansGB-W3-76" transform="translate(318.699936 0)"/>
     <use xlink:href="#HiraginoSansGB-W3-65" transform="translate(373.09993 0)"/>
     <use xlink:href="#HiraginoSansGB-W3-72" transform="translate(431.899918 0)"/>
     <use xlink:href="#HiraginoSansGB-W3-61" transform="translate(474.899902 0)"/>
     <use xlink:href="#HiraginoSansGB-W3-6c" transform="translate(532.399887 0)"/>
     <use xlink:href="#HiraginoSansGB-W3-6c" transform="translate(555.599884 0)"/>
    </g>
   </g>
   <g id="text_2">
    <!-- tabpfn_ts -->
    <g style="fill: #0f766e" transform="translate(33.984 90.80352) scale(0.18 -0.18)">
     <defs>
      <path id="HiraginoSansGB-W3-62" d="M 966 38 
L 966 397 
C 966 480 960 531 947 653 
C 1050 499 1107 429 1248 320 
C 1542 77 1837 -26 2240 -26 
C 3238 -26 3840 653 3840 1779 
C 3840 2893 3251 3558 2266 3558 
C 1683 3558 1248 3328 947 2854 
C 966 3021 973 3136 973 3309 
L 973 4173 
C 973 4480 986 4666 1018 4902 
L 454 4902 
C 486 4653 499 4448 499 4179 
L 499 774 
C 499 467 486 282 454 38 
L 966 38 
z
M 3347 1786 
C 3347 909 2925 390 2208 390 
C 1472 390 973 954 973 1779 
C 973 2598 1472 3149 2227 3149 
C 2938 3149 3347 2650 3347 1786 
z
" transform="scale(0.015625)"/>
      <path id="HiraginoSansGB-W3-70" d="M 1018 -1306 
C 986 -1069 973 -883 973 -582 
L 973 211 
C 973 384 966 480 947 659 
C 1248 218 1702 -19 2266 -19 
C 3226 -19 3840 678 3840 1766 
C 3840 2880 3238 3552 2253 3552 
C 1683 3552 1235 3315 947 2861 
C 960 2970 966 3040 966 3123 
L 966 3488 
L 454 3488 
C 486 3245 499 3059 499 2752 
L 499 -589 
C 499 -851 486 -1056 454 -1306 
L 1018 -1306 
z
M 2221 397 
C 1888 397 1568 518 1344 736 
C 1114 960 979 1344 979 1760 
C 979 2586 1478 3136 2214 3136 
C 2931 3136 3341 2637 3341 1766 
C 3341 915 2918 397 2221 397 
z
" transform="scale(0.015625)"/>
      <path id="HiraginoSansGB-W3-66" d="M 915 3078 
L 915 762 
C 915 493 902 275 870 38 
L 1446 38 
C 1414 275 1402 454 1402 755 
L 1402 3078 
L 1722 3078 
C 2035 3078 2182 3072 2400 3040 
L 2400 3526 
C 2163 3494 1997 3488 1722 3488 
L 1402 3488 
L 1402 3840 
C 1402 4141 1427 4275 1498 4378 
C 1581 4493 1728 4550 1933 4550 
C 2131 4550 2291 4506 2464 4403 
L 2598 4832 
C 2368 4922 2170 4960 1920 4960 
C 1562 4960 1267 4845 1114 4646 
C 966 4461 915 4256 915 3866 
L 915 3488 
L 653 3488 
C 397 3488 243 3501 70 3526 
L 70 3040 
C 269 3066 429 3078 653 3078 
L 915 3078 
z
" transform="scale(0.015625)"/>
      <path id="HiraginoSansGB-W3-6e" d="M 1030 38 
C 998 288 986 480 986 762 
L 986 1997 
C 1037 2253 1114 2413 1280 2630 
C 1549 2976 1837 3136 2195 3136 
C 2701 3136 2976 2829 2976 2253 
L 2976 762 
C 2976 480 2963 288 2931 38 
L 3507 38 
C 3475 250 3462 429 3462 755 
L 3462 2336 
C 3462 2650 3405 2886 3283 3072 
C 3078 3386 2720 3552 2259 3552 
C 1683 3552 1267 3302 966 2778 
C 986 2925 986 2976 986 3053 
L 986 3488 
L 454 3488 
C 493 3232 506 3053 506 2765 
L 506 762 
C 506 454 493 282 454 38 
L 1030 38 
z
" transform="scale(0.015625)"/>
      <path id="HiraginoSansGB-W3-5f" d="M 0 -582 
L 0 -845 
L 3206 -845 
L 3206 -582 
L 0 -582 
z
" transform="scale(0.015625)"/>
     </defs>
     <use xlink:href="#HiraginoSansGB-W3-74"/>
     <use xlink:href="#HiraginoSansGB-W3-61" transform="translate(39.199997 0)"/>
     <use xlink:href="#HiraginoSansGB-W3-62" transform="translate(96.699982 0)"/>
     <use xlink:href="#HiraginoSansGB-W3-70" transform="translate(161.299973 0)"/>
     <use xlink:href="#HiraginoSansGB-W3-66" transform="translate(225.999969 0)"/>
     <use xlink:href="#HiraginoSansGB-W3-6e" transform="translate(267.699966 0)"/>
     <use xlink:href="#HiraginoSansGB-W3-5f" transform="translate(329.499954 0)"/>
     <use xlink:href="#HiraginoSansGB-W3-74" transform="translate(379.599945 0)"/>
     <use xlink:href="#HiraginoSansGB-W3-73" transform="translate(418.799942 0)"/>
    </g>
   </g>
   <g id="text_3">
    <!-- avg rank 2.44 -->
    <g style="fill: #64748b" transform="translate(33.984 112.42512) scale(0.08 -0.08)">
     <defs>
      <path id="HiraginoSansGB-W3-67" d="M 442 -698 
C 864 -1158 1261 -1338 1894 -1338 
C 2477 -1338 2957 -1165 3226 -851 
C 3482 -550 3597 -147 3597 480 
L 3597 2771 
C 3597 3072 3610 3238 3642 3488 
L 3130 3488 
L 3130 3123 
C 3130 3040 3136 2989 3142 2880 
C 2880 3328 2470 3552 1914 3552 
C 922 3552 294 2861 294 1773 
C 294 704 909 32 1875 32 
C 2266 32 2624 147 2867 365 
C 2976 461 3046 544 3142 717 
C 3117 186 3091 -45 3027 -230 
C 2861 -691 2470 -934 1914 -934 
C 1568 -934 1299 -845 1056 -634 
C 979 -576 941 -531 851 -410 
L 442 -698 
z
M 794 1773 
C 794 2624 1229 3149 1939 3149 
C 2656 3149 3117 2630 3117 1824 
C 3117 992 2630 435 1901 435 
C 1216 435 794 941 794 1773 
z
" transform="scale(0.015625)"/>
      <path id="HiraginoSansGB-W3-6b" d="M 454 4902 
C 486 4672 499 4499 499 4179 
L 499 762 
C 499 454 486 269 454 38 
L 1024 38 
C 992 262 979 467 979 755 
L 979 1293 
L 1523 1811 
L 2374 646 
C 2694 218 2707 192 2778 38 
L 3507 38 
C 3366 179 3334 218 2950 710 
L 1869 2106 
L 2758 2931 
C 2771 2944 2803 2982 2861 3034 
C 2950 3123 3027 3194 3091 3251 
C 3264 3405 3264 3405 3354 3488 
L 2592 3488 
C 2502 3354 2413 3245 2138 2982 
L 979 1862 
L 979 4179 
C 979 4506 992 4672 1024 4902 
L 454 4902 
z
" transform="scale(0.015625)"/>
      <path id="HiraginoSansGB-W3-32" d="M 3027 38 
C 3347 38 3558 26 3814 0 
L 3814 538 
C 3571 506 3354 493 3034 493 
L 992 493 
C 1069 800 1158 973 1357 1235 
C 1568 1504 1773 1683 2278 2022 
C 3008 2509 3174 2630 3366 2848 
C 3616 3123 3744 3430 3744 3757 
C 3744 4512 3123 4998 2157 4998 
C 1594 4998 1158 4832 870 4506 
C 659 4269 563 4045 467 3584 
L 1005 3494 
C 1050 3814 1107 3968 1229 4141 
C 1421 4416 1734 4557 2157 4557 
C 2810 4557 3219 4243 3219 3757 
C 3219 3366 3008 3085 2374 2656 
C 1632 2150 1619 2144 1395 1952 
C 992 1606 723 1254 563 851 
C 467 608 448 512 378 6 
C 582 32 678 38 1082 38 
L 3027 38 
z
" transform="scale(0.015625)"/>
      <path id="HiraginoSansGB-W3-2e" d="M 448 672 
L 448 38 
L 1082 38 
L 1082 672 
L 448 672 
z
" transform="scale(0.015625)"/>
      <path id="HiraginoSansGB-W3-34" d="M 198 1254 
C 410 1274 602 1280 960 1280 
L 2675 1280 
L 2675 730 
C 2675 442 2662 262 2624 38 
L 3206 38 
C 3168 275 3155 422 3155 730 
L 3155 1280 
L 3392 1280 
C 3667 1280 3827 1267 4064 1235 
L 4064 1766 
C 3834 1734 3667 1722 3398 1722 
L 3155 1722 
L 3155 3821 
C 3155 4326 3162 4525 3194 4902 
L 2714 4902 
C 2566 4678 2451 4518 2234 4250 
L 614 2227 
C 480 2067 333 1888 198 1734 
L 198 1254 
z
M 2682 1715 
L 768 1715 
L 2240 3571 
C 2426 3808 2586 4019 2720 4211 
C 2688 3885 2682 3680 2682 3341 
L 2682 1715 
z
" transform="scale(0.015625)"/>
     </defs>
     <use xlink:href="#HiraginoSansGB-W3-61"/>
     <use xlink:href="#HiraginoSansGB-W3-76" transform="translate(57.499985 0)"/>
     <use xlink:href="#HiraginoSansGB-W3-67" transform="translate(111.899979 0)"/>
     <use xlink:href="#HiraginoSansGB-W3-20" transform="translate(175.999969 0)"/>
     <use xlink:href="#HiraginoSansGB-W3-72" transform="translate(209.299957 0)"/>
     <use xlink:href="#HiraginoSansGB-W3-61" transform="translate(252.299942 0)"/>
     <use xlink:href="#HiraginoSansGB-W3-6e" transform="translate(309.799927 0)"/>
     <use xlink:href="#HiraginoSansGB-W3-6b" transform="translate(371.599915 0)"/>
     <use xlink:href="#HiraginoSansGB-W3-20" transform="translate(429.099899 0)"/>
     <use xlink:href="#HiraginoSansGB-W3-32" transform="translate(462.399887 0)"/>
     <use xlink:href="#HiraginoSansGB-W3-2e" transform="translate(528.099884 0)"/>
     <use xlink:href="#HiraginoSansGB-W3-34" transform="translate(552.099869 0)"/>
     <use xlink:href="#HiraginoSansGB-W3-34" transform="translate(618.19986 0)"/>
    </g>
   </g>
   <g id="text_4">
    <!-- TabPFN wins -->
    <g style="fill: #64748b" transform="translate(201.384 56.20896) scale(0.09 -0.09)">
     <defs>
      <path id="HiraginoSansGB-W3-54" d="M 2323 4454 
L 3315 4454 
C 3674 4454 3859 4442 4070 4410 
L 4070 4947 
C 3859 4915 3686 4902 3315 4902 
L 819 4902 
C 480 4902 314 4915 90 4947 
L 90 4410 
C 301 4442 499 4454 826 4454 
L 1824 4454 
L 1824 762 
C 1824 461 1811 237 1773 38 
L 2374 38 
C 2336 269 2323 448 2323 762 
L 2323 4454 
z
" transform="scale(0.015625)"/>
      <path id="HiraginoSansGB-W3-50" d="M 1094 38 
C 1056 256 1043 454 1043 762 
L 1043 2022 
L 2470 2022 
C 3469 2022 4045 2566 4045 3507 
C 4045 4397 3488 4902 2502 4902 
L 1197 4902 
C 902 4902 723 4909 493 4922 
C 531 4653 544 4454 544 4192 
L 544 755 
C 544 454 531 269 493 38 
L 1094 38 
z
M 1043 2464 
L 1043 4461 
L 2470 4461 
C 3162 4461 3533 4122 3533 3482 
C 3533 2829 3149 2464 2470 2464 
L 1043 2464 
z
" transform="scale(0.015625)"/>
      <path id="HiraginoSansGB-W3-46" d="M 1050 2349 
L 2547 2349 
C 2880 2349 3066 2336 3277 2304 
L 3277 2842 
C 3040 2810 2854 2797 2547 2797 
L 1050 2797 
L 1050 4448 
L 2893 4448 
C 3232 4448 3418 4435 3629 4403 
L 3629 4947 
C 3386 4915 3206 4902 2893 4902 
L 1197 4902 
C 890 4902 717 4909 493 4922 
C 531 4672 544 4467 544 4192 
L 544 787 
C 544 454 531 256 493 38 
L 1101 38 
C 1062 269 1050 442 1050 787 
L 1050 2349 
z
" transform="scale(0.015625)"/>
      <path id="HiraginoSansGB-W3-4e" d="M 506 4902 
C 544 4672 557 4480 557 4186 
L 557 800 
C 557 467 544 243 506 38 
L 1101 38 
C 1062 250 1050 461 1050 800 
L 1050 3533 
C 1050 3699 1037 4013 1011 4314 
C 1101 4141 1312 3776 1363 3699 
L 3418 614 
C 3590 352 3661 224 3750 38 
L 4448 38 
C 4410 243 4397 435 4397 755 
L 4397 4166 
C 4397 4493 4410 4672 4448 4902 
L 3853 4902 
C 3891 4678 3904 4480 3904 4166 
L 3904 1453 
C 3904 1395 3917 1114 3942 602 
C 3789 877 3597 1190 3526 1299 
L 1504 4326 
C 1318 4614 1235 4755 1178 4902 
L 506 4902 
z
" transform="scale(0.015625)"/>
      <path id="HiraginoSansGB-W3-77" d="M 3782 38 
C 3808 166 3834 262 3917 518 
L 4608 2733 
C 4723 3098 4806 3354 4858 3488 
L 4275 3488 
C 4262 3302 4218 3066 4134 2790 
L 3654 1165 
C 3642 1126 3610 979 3552 730 
C 3539 774 3539 774 3514 870 
C 3488 960 3450 1101 3430 1158 
L 2816 3002 
C 2752 3194 2707 3373 2688 3488 
L 2259 3488 
C 2246 3373 2202 3194 2131 3002 
L 1523 1190 
C 1504 1133 1427 877 1389 730 
C 1344 954 1306 1088 1274 1197 
L 806 2790 
C 717 3072 672 3290 659 3488 
L 70 3488 
C 147 3270 250 2970 326 2733 
L 1011 525 
C 1114 211 1114 198 1152 38 
L 1600 38 
C 1619 147 1670 333 1734 518 
L 2355 2368 
C 2374 2432 2426 2605 2477 2784 
C 2541 2547 2573 2413 2586 2381 
L 3213 518 
C 3270 339 3315 173 3341 38 
L 3782 38 
z
" transform="scale(0.015625)"/>
      <path id="HiraginoSansGB-W3-69" d="M 448 4902 
L 448 4333 
L 1069 4333 
L 1069 4902 
L 448 4902 
z
M 467 3488 
C 499 3264 512 3072 512 2765 
L 512 762 
C 512 493 499 314 467 38 
L 1043 38 
C 1011 288 998 467 998 762 
L 998 2765 
C 998 3085 1011 3264 1043 3488 
L 467 3488 
z
" transform="scale(0.015625)"/>
     </defs>
     <use xlink:href="#HiraginoSansGB-W3-54"/>
     <use xlink:href="#HiraginoSansGB-W3-61" transform="translate(64.899994 0)"/>
     <use xlink:href="#HiraginoSansGB-W3-62" transform="translate(122.399979 0)"/>
     <use xlink:href="#HiraginoSansGB-W3-50" transform="translate(186.999969 0)"/>
     <use xlink:href="#HiraginoSansGB-W3-46" transform="translate(253.199966 0)"/>
     <use xlink:href="#HiraginoSansGB-W3-4e" transform="translate(313.399963 0)"/>
     <use xlink:href="#HiraginoSansGB-W3-20" transform="translate(390.799957 0)"/>
     <use xlink:href="#HiraginoSansGB-W3-77" transform="translate(424.099945 0)"/>
     <use xlink:href="#HiraginoSansGB-W3-69" transform="translate(501.09993 0)"/>
     <use xlink:href="#HiraginoSansGB-W3-6e" transform="translate(524.899918 0)"/>
     <use xlink:href="#HiraginoSansGB-W3-73" transform="translate(586.699905 0)"/>
    </g>
   </g>
   <g id="text_5">
    <!-- 7 -->
    <g style="fill: #0f766e" transform="translate(201.384 90.80352) scale(0.18 -0.18)">
     <defs>
      <path id="HiraginoSansGB-W3-37" d="M 3789 4934 
C 3565 4909 3424 4902 3046 4902 
L 1126 4902 
C 819 4902 646 4915 397 4947 
L 397 4403 
C 640 4435 819 4448 1120 4448 
L 3200 4448 
C 2630 3674 2355 3232 2048 2592 
C 1651 1773 1478 1197 1274 38 
L 1882 38 
C 1984 781 2054 1107 2221 1638 
C 2470 2419 2739 2963 3315 3853 
C 3565 4237 3674 4378 3789 4467 
L 3789 4934 
z
" transform="scale(0.015625)"/>
     </defs>
     <use xlink:href="#HiraginoSansGB-W3-37"/>
    </g>
   </g>
   <g id="text_6">
    <!-- out of 25 dataset-tasks -->
    <g style="fill: #64748b" transform="translate(201.384 112.42512) scale(0.08 -0.08)">
     <defs>
      <path id="HiraginoSansGB-W3-75" d="M 2970 38 
L 3501 38 
C 3462 294 3450 474 3450 762 
L 3450 2765 
C 3450 3059 3462 3264 3494 3488 
L 2925 3488 
C 2957 3264 2970 3040 2970 2765 
L 2970 1530 
C 2912 1274 2842 1114 2675 890 
C 2419 544 2118 384 1754 384 
C 1254 384 979 704 979 1274 
L 979 2765 
C 979 3046 992 3264 1024 3488 
L 448 3488 
C 480 3283 493 3059 493 2771 
L 493 1190 
C 493 883 557 634 672 448 
C 877 141 1235 -26 1696 -26 
C 2272 -26 2669 211 2989 736 
C 2970 570 2970 525 2970 454 
L 2970 38 
z
" transform="scale(0.015625)"/>
      <path id="HiraginoSansGB-W3-35" d="M 1261 4461 
L 2765 4461 
C 3066 4461 3270 4448 3514 4410 
L 3514 4954 
C 3258 4915 3110 4902 2765 4902 
L 1446 4902 
C 1069 4902 966 4909 768 4934 
C 781 4774 781 4749 781 4659 
C 781 4538 774 4461 762 4275 
L 621 2829 
C 595 2554 576 2419 525 2170 
L 1005 2125 
C 1075 2298 1146 2387 1299 2509 
C 1530 2688 1811 2778 2138 2778 
C 2816 2778 3258 2317 3258 1613 
C 3258 877 2778 390 2061 390 
C 1690 390 1370 525 1152 768 
C 1056 877 1011 960 947 1139 
L 422 986 
C 576 678 666 544 826 384 
C 1133 96 1549 -51 2048 -51 
C 3104 -51 3776 608 3776 1638 
C 3776 2112 3635 2490 3347 2765 
C 3059 3046 2662 3200 2195 3200 
C 1754 3200 1382 3053 1075 2758 
C 1114 2931 1114 2931 1126 3046 
L 1261 4461 
z
" transform="scale(0.015625)"/>
      <path id="HiraginoSansGB-W3-64" d="M 3162 38 
L 3674 38 
C 3642 288 3629 454 3629 774 
L 3629 4179 
C 3629 4461 3642 4646 3674 4902 
L 3110 4902 
C 3142 4659 3155 4474 3155 4173 
L 3155 3315 
C 3155 3168 3155 3110 3174 2976 
L 3181 2880 
C 2899 3322 2451 3558 1869 3558 
C 909 3558 294 2861 294 1766 
C 294 653 896 -26 1882 -26 
C 2464 -26 2880 198 3181 666 
C 3168 557 3162 442 3162 352 
L 3162 38 
z
M 1920 3142 
C 2259 3142 2566 3021 2790 2803 
C 3021 2579 3149 2208 3149 1786 
C 3149 941 2669 397 1920 397 
C 1562 397 1261 531 1062 781 
C 896 992 800 1357 800 1779 
C 800 2630 1222 3142 1920 3142 
z
" transform="scale(0.015625)"/>
      <path id="HiraginoSansGB-W3-2d" d="M 179 1632 
C 358 1658 506 1664 762 1664 
L 1523 1664 
C 1792 1664 1933 1658 2112 1632 
L 2112 2170 
C 1933 2144 1798 2138 1523 2138 
L 762 2138 
C 493 2138 358 2144 179 2170 
L 179 1632 
z
" transform="scale(0.015625)"/>
     </defs>
     <use xlink:href="#HiraginoSansGB-W3-6f"/>
     <use xlink:href="#HiraginoSansGB-W3-75" transform="translate(62.499985 0)"/>
     <use xlink:href="#HiraginoSansGB-W3-74" transform="translate(124.299973 0)"/>
     <use xlink:href="#HiraginoSansGB-W3-20" transform="translate(163.499969 0)"/>
     <use xlink:href="#HiraginoSansGB-W3-6f" transform="translate(196.799957 0)"/>
     <use xlink:href="#HiraginoSansGB-W3-66" transform="translate(259.299942 0)"/>
     <use xlink:href="#HiraginoSansGB-W3-20" transform="translate(300.999939 0)"/>
     <use xlink:href="#HiraginoSansGB-W3-32" transform="translate(334.299927 0)"/>
     <use xlink:href="#HiraginoSansGB-W3-35" transform="translate(399.999924 0)"/>
     <use xlink:href="#HiraginoSansGB-W3-20" transform="translate(465.699921 0)"/>
     <use xlink:href="#HiraginoSansGB-W3-64" transform="translate(498.999908 0)"/>
     <use xlink:href="#HiraginoSansGB-W3-61" transform="translate(563.599899 0)"/>
     <use xlink:href="#HiraginoSansGB-W3-74" transform="translate(621.099884 0)"/>
     <use xlink:href="#HiraginoSansGB-W3-61" transform="translate(660.299881 0)"/>
     <use xlink:href="#HiraginoSansGB-W3-73" transform="translate(717.799866 0)"/>
     <use xlink:href="#HiraginoSansGB-W3-65" transform="translate(771.499863 0)"/>
     <use xlink:href="#HiraginoSansGB-W3-74" transform="translate(830.29985 0)"/>
     <use xlink:href="#HiraginoSansGB-W3-2d" transform="translate(869.499847 0)"/>
     <use xlink:href="#HiraginoSansGB-W3-74" transform="translate(905.299835 0)"/>
     <use xlink:href="#HiraginoSansGB-W3-61" transform="translate(944.499832 0)"/>
     <use xlink:href="#HiraginoSansGB-W3-73" transform="translate(1001.999817 0)"/>
     <use xlink:href="#HiraginoSansGB-W3-6b" transform="translate(1055.699814 0)"/>
     <use xlink:href="#HiraginoSansGB-W3-73" transform="translate(1113.199799 0)"/>
    </g>
   </g>
   <g id="text_7">
    <!-- TabPFN top-3 -->
    <g style="fill: #64748b" transform="translate(368.784 56.20896) scale(0.09 -0.09)">
     <defs>
      <path id="HiraginoSansGB-W3-33" d="M 288 1088 
C 403 762 480 621 614 467 
C 922 122 1402 -58 2048 -58 
C 3117 -58 3782 480 3782 1344 
C 3782 1754 3635 2093 3354 2310 
C 3136 2477 2938 2547 2566 2586 
C 2861 2643 3002 2694 3168 2816 
C 3450 3014 3616 3360 3616 3750 
C 3616 4518 3027 5005 2099 5005 
C 1542 5005 1107 4845 826 4538 
C 666 4371 589 4224 480 3898 
L 1011 3782 
C 1082 4019 1126 4122 1216 4237 
C 1395 4467 1677 4576 2067 4576 
C 2714 4576 3098 4256 3098 3706 
C 3098 3475 3002 3238 2842 3085 
C 2643 2886 2330 2790 1907 2790 
C 1734 2790 1581 2803 1434 2829 
L 1434 2323 
C 1606 2342 1766 2355 1946 2355 
C 2797 2355 3251 2010 3251 1376 
C 3251 768 2784 384 2042 384 
C 1715 384 1434 461 1216 614 
C 1018 755 928 890 826 1222 
L 288 1088 
z
" transform="scale(0.015625)"/>
     </defs>
     <use xlink:href="#HiraginoSansGB-W3-54"/>
     <use xlink:href="#HiraginoSansGB-W3-61" transform="translate(64.899994 0)"/>
     <use xlink:href="#HiraginoSansGB-W3-62" transform="translate(122.399979 0)"/>
     <use xlink:href="#HiraginoSansGB-W3-50" transform="translate(186.999969 0)"/>
     <use xlink:href="#HiraginoSansGB-W3-46" transform="translate(253.199966 0)"/>
     <use xlink:href="#HiraginoSansGB-W3-4e" transform="translate(313.399963 0)"/>
     <use xlink:href="#HiraginoSansGB-W3-20" transform="translate(390.799957 0)"/>
     <use xlink:href="#HiraginoSansGB-W3-74" transform="translate(424.099945 0)"/>
     <use xlink:href="#HiraginoSansGB-W3-6f" transform="translate(463.299942 0)"/>
     <use xlink:href="#HiraginoSansGB-W3-70" transform="translate(525.799927 0)"/>
     <use xlink:href="#HiraginoSansGB-W3-2d" transform="translate(590.499924 0)"/>
     <use xlink:href="#HiraginoSansGB-W3-33" transform="translate(626.299911 0)"/>
    </g>
   </g>
   <g id="text_8">
    <!-- 19 -->
    <g style="fill: #0f766e" transform="translate(368.784 90.80352) scale(0.18 -0.18)">
     <defs>
      <path id="HiraginoSansGB-W3-31" d="M 1030 4429 
C 1216 4454 1382 4467 1587 4467 
L 1933 4467 
L 1933 762 
C 1933 467 1920 262 1882 38 
L 2490 38 
C 2451 275 2438 461 2438 762 
L 2438 3872 
C 2438 4218 2458 4544 2496 4934 
C 2285 4909 2182 4902 1965 4902 
L 1562 4902 
C 1318 4902 1197 4909 1030 4934 
L 1030 4429 
z
" transform="scale(0.015625)"/>
      <path id="HiraginoSansGB-W3-39" d="M 416 934 
C 582 595 685 448 864 301 
C 1139 70 1498 -45 1939 -45 
C 2528 -45 2950 147 3270 550 
C 3616 979 3802 1702 3802 2592 
C 3802 3142 3744 3578 3616 3923 
C 3373 4589 2784 4998 2067 4998 
C 1018 4998 333 4333 333 3315 
C 333 2861 493 2438 768 2163 
C 1043 1888 1446 1741 1920 1741 
C 2400 1741 2758 1882 3085 2189 
C 3200 2310 3251 2374 3341 2547 
C 3328 2221 3309 1958 3283 1798 
C 3232 1498 3130 1184 3008 979 
C 2771 576 2438 390 1978 390 
C 1626 390 1350 493 1171 691 
C 1069 800 1018 890 941 1101 
L 416 934 
z
M 1978 2170 
C 1280 2170 838 2624 838 3347 
C 838 3597 902 3853 1005 4019 
C 1216 4358 1600 4563 2022 4563 
C 2707 4563 3219 4045 3219 3354 
C 3219 2675 2688 2170 1978 2170 
z
" transform="scale(0.015625)"/>
     </defs>
     <use xlink:href="#HiraginoSansGB-W3-31"/>
     <use xlink:href="#HiraginoSansGB-W3-39" transform="translate(65.699997 0)"/>
    </g>
   </g>
   <g id="text_9">
    <!-- out of 25 dataset-tasks -->
    <g style="fill: #64748b" transform="translate(368.784 112.42512) scale(0.08 -0.08)">
     <use xlink:href="#HiraginoSansGB-W3-6f"/>
     <use xlink:href="#HiraginoSansGB-W3-75" transform="translate(62.499985 0)"/>
     <use xlink:href="#HiraginoSansGB-W3-74" transform="translate(124.299973 0)"/>
     <use xlink:href="#HiraginoSansGB-W3-20" transform="translate(163.499969 0)"/>
     <use xlink:href="#HiraginoSansGB-W3-6f" transform="translate(196.799957 0)"/>
     <use xlink:href="#HiraginoSansGB-W3-66" transform="translate(259.299942 0)"/>
     <use xlink:href="#HiraginoSansGB-W3-20" transform="translate(300.999939 0)"/>
     <use xlink:href="#HiraginoSansGB-W3-32" transform="translate(334.299927 0)"/>
     <use xlink:href="#HiraginoSansGB-W3-35" transform="translate(399.999924 0)"/>
     <use xlink:href="#HiraginoSansGB-W3-20" transform="translate(465.699921 0)"/>
     <use xlink:href="#HiraginoSansGB-W3-64" transform="translate(498.999908 0)"/>
     <use xlink:href="#HiraginoSansGB-W3-61" transform="translate(563.599899 0)"/>
     <use xlink:href="#HiraginoSansGB-W3-74" transform="translate(621.099884 0)"/>
     <use xlink:href="#HiraginoSansGB-W3-61" transform="translate(660.299881 0)"/>
     <use xlink:href="#HiraginoSansGB-W3-73" transform="translate(717.799866 0)"/>
     <use xlink:href="#HiraginoSansGB-W3-65" transform="translate(771.499863 0)"/>
     <use xlink:href="#HiraginoSansGB-W3-74" transform="translate(830.29985 0)"/>
     <use xlink:href="#HiraginoSansGB-W3-2d" transform="translate(869.499847 0)"/>
     <use xlink:href="#HiraginoSansGB-W3-74" transform="translate(905.299835 0)"/>
     <use xlink:href="#HiraginoSansGB-W3-61" transform="translate(944.499832 0)"/>
     <use xlink:href="#HiraginoSansGB-W3-73" transform="translate(1001.999817 0)"/>
     <use xlink:href="#HiraginoSansGB-W3-6b" transform="translate(1055.699814 0)"/>
     <use xlink:href="#HiraginoSansGB-W3-73" transform="translate(1113.199799 0)"/>
    </g>
   </g>
   <g id="text_10">
    <!-- Mean SMAPE -->
    <g style="fill: #64748b" transform="translate(536.184 56.20896) scale(0.09 -0.09)">
     <defs>
      <path id="HiraginoSansGB-W3-4d" d="M 2554 710 
C 2682 422 2758 205 2790 38 
L 3245 38 
C 3296 250 3360 416 3488 704 
L 4794 3578 
C 4915 3840 5005 4096 5069 4358 
C 5043 4096 5024 3750 5024 3571 
L 5024 794 
C 5024 486 5011 256 4973 38 
L 5555 38 
C 5517 269 5504 442 5504 794 
L 5504 4141 
C 5504 4474 5517 4659 5555 4902 
L 4819 4902 
C 4781 4717 4710 4518 4602 4269 
L 3027 742 
L 1446 4269 
C 1350 4480 1274 4710 1235 4902 
L 493 4902 
C 531 4666 544 4461 544 4141 
L 544 794 
C 544 461 531 275 493 38 
L 1075 38 
C 1037 256 1024 454 1024 794 
L 1024 3533 
C 1024 3686 998 4083 979 4358 
C 1101 3968 1171 3770 1267 3565 
L 2554 710 
z
" transform="scale(0.015625)"/>
      <path id="HiraginoSansGB-W3-53" d="M 3840 3718 
C 3770 4045 3706 4205 3558 4397 
C 3270 4781 2778 4986 2144 4986 
C 1152 4986 506 4467 506 3661 
C 506 3213 704 2874 1101 2650 
C 1318 2528 1568 2438 1971 2355 
C 2746 2182 2816 2163 3027 2042 
C 3270 1907 3398 1670 3398 1357 
C 3398 762 2938 403 2176 403 
C 1702 403 1318 563 1107 845 
C 973 1018 928 1171 909 1478 
L 352 1408 
C 416 986 486 787 653 563 
C 947 166 1478 -45 2195 -45 
C 3296 -45 3917 467 3917 1370 
C 3917 2112 3507 2502 2483 2720 
C 1747 2880 1741 2880 1568 2950 
C 1190 3104 1011 3341 1011 3674 
C 1011 4192 1472 4544 2131 4544 
C 2547 4544 2874 4416 3078 4173 
C 3200 4026 3251 3898 3302 3642 
L 3840 3718 
z
" transform="scale(0.015625)"/>
      <path id="HiraginoSansGB-W3-41" d="M 4710 38 
C 4614 205 4531 390 4371 774 
L 2938 4307 
C 2778 4698 2746 4781 2720 4902 
L 2074 4902 
C 2042 4755 1990 4608 1869 4307 
L 435 774 
C 262 346 218 250 90 38 
L 755 38 
C 800 262 858 448 954 691 
L 1286 1517 
L 3520 1517 
L 3853 691 
C 3930 493 4000 269 4051 38 
L 4710 38 
z
M 3366 1958 
L 1440 1958 
L 2259 4070 
C 2272 4096 2291 4166 2330 4269 
C 2342 4314 2368 4384 2400 4480 
C 2522 4128 2522 4122 2541 4070 
L 3366 1958 
z
" transform="scale(0.015625)"/>
      <path id="HiraginoSansGB-W3-45" d="M 3789 531 
C 3552 499 3373 486 3078 486 
L 1050 486 
L 1050 2368 
L 2733 2368 
C 3066 2368 3232 2355 3450 2323 
L 3450 2861 
C 3206 2829 3014 2816 2733 2816 
L 1050 2816 
L 1050 4454 
L 3021 4454 
C 3341 4454 3514 4442 3738 4410 
L 3738 4947 
C 3520 4915 3302 4902 3021 4902 
L 1197 4902 
C 890 4902 717 4909 493 4922 
C 531 4640 544 4467 544 4192 
L 544 781 
C 544 454 531 262 493 19 
C 710 32 890 38 1197 38 
L 3072 38 
C 3411 38 3584 26 3789 -6 
L 3789 531 
z
" transform="scale(0.015625)"/>
     </defs>
     <use xlink:href="#HiraginoSansGB-W3-4d"/>
     <use xlink:href="#HiraginoSansGB-W3-65" transform="translate(94.499985 0)"/>
     <use xlink:href="#HiraginoSansGB-W3-61" transform="translate(153.299973 0)"/>
     <use xlink:href="#HiraginoSansGB-W3-6e" transform="translate(210.799957 0)"/>
     <use xlink:href="#HiraginoSansGB-W3-20" transform="translate(272.599945 0)"/>
     <use xlink:href="#HiraginoSansGB-W3-53" transform="translate(305.899933 0)"/>
     <use xlink:href="#HiraginoSansGB-W3-4d" transform="translate(372.799927 0)"/>
     <use xlink:href="#HiraginoSansGB-W3-41" transform="translate(467.299911 0)"/>
     <use xlink:href="#HiraginoSansGB-W3-50" transform="translate(542.299896 0)"/>
     <use xlink:href="#HiraginoSansGB-W3-45" transform="translate(608.499893 0)"/>
    </g>
   </g>
   <g id="text_11">
    <!-- 1.439 -->
    <g style="fill: #0f766e" transform="translate(536.184 90.80352) scale(0.18 -0.18)">
     <use xlink:href="#HiraginoSansGB-W3-31"/>
     <use xlink:href="#HiraginoSansGB-W3-2e" transform="translate(65.699997 0)"/>
     <use xlink:href="#HiraginoSansGB-W3-34" transform="translate(89.699982 0)"/>
     <use xlink:href="#HiraginoSansGB-W3-33" transform="translate(155.799973 0)"/>
     <use xlink:href="#HiraginoSansGB-W3-39" transform="translate(221.499969 0)"/>
    </g>
   </g>
   <g id="text_12">
    <!-- TabPFN-TS -->
    <g style="fill: #64748b" transform="translate(536.184 112.42512) scale(0.08 -0.08)">
     <use xlink:href="#HiraginoSansGB-W3-54"/>
     <use xlink:href="#HiraginoSansGB-W3-61" transform="translate(64.899994 0)"/>
     <use xlink:href="#HiraginoSansGB-W3-62" transform="translate(122.399979 0)"/>
     <use xlink:href="#HiraginoSansGB-W3-50" transform="translate(186.999969 0)"/>
     <use xlink:href="#HiraginoSansGB-W3-46" transform="translate(253.199966 0)"/>
     <use xlink:href="#HiraginoSansGB-W3-4e" transform="translate(313.399963 0)"/>
     <use xlink:href="#HiraginoSansGB-W3-2d" transform="translate(390.799957 0)"/>
     <use xlink:href="#HiraginoSansGB-W3-54" transform="translate(426.599945 0)"/>
     <use xlink:href="#HiraginoSansGB-W3-53" transform="translate(491.499939 0)"/>
    </g>
   </g>
  </g>
 </g>
 <defs>
  <clipPath id="p9baa869bb4">
   <rect x="7.2" y="7.2" width="669.6" height="144.144"/>
  </clipPath>
 </defs>
</svg>
